<svg width="183" height="57" viewBox="0 0 183 57" fill="none" xmlns="http://www.w3.org/2000/svg">
<path d="M17.5283 1.7088C15.3656 0.551732 12.8892 0.562542 10.8346 1.53578C10.1209 1.83856 6.81189 3.40655 4.27067 6.83451C2.27013 9.53794 1.17794 12.6307 0.961668 15.7667C0.64807 20.157 1.98895 23.9418 4.18414 26.9805C2.57289 24.6231 2.91897 21.0005 5.77379 19.0973C9.21256 16.794 13.8517 16.2857 16.4578 15.3341C18.1663 14.7502 19.6586 13.5282 20.5885 11.8088C22.535 8.18622 21.1617 3.65527 17.5391 1.7088" fill="#5592CE"/>
<path d="M95.0953 11.4087C95.0953 8.0781 94.8574 7.86182 92.4135 7.67798V6.9751H105.779C105.812 7.49416 105.963 9.72178 106.115 11.4303L105.358 11.5277C105.055 10.0029 104.72 9.20273 104.255 8.71611C103.768 8.19705 102.762 7.98077 100.891 7.98077H98.5773C97.723 7.98077 97.6582 8.04565 97.6582 8.93238V16.0586H100.74C103.368 16.0586 103.465 15.8748 103.768 13.6255H104.536V19.5406H103.768C103.617 18.4052 103.519 17.7996 103.13 17.4644C102.73 17.1292 102.059 17.0643 100.74 17.0643H97.6582V22.4279C97.6582 24.1689 97.842 25.0881 98.426 25.4449C99.0099 25.8126 100.102 25.8126 101.54 25.8126C103.271 25.8126 104.709 25.6612 105.379 24.9259C105.909 24.3852 106.385 23.3363 106.85 21.9305L107.618 22.017C107.466 22.8713 106.796 25.9856 106.547 26.8183H92.1107V26.1154C94.8574 25.9316 95.0953 25.7153 95.0953 22.3955V11.4087Z" fill="#848484"/>
<path d="M130.608 22.3955C130.608 25.7153 130.845 25.9424 133.354 26.1154V26.8183H125.298V26.1154C127.796 25.9424 128.045 25.7153 128.045 22.3955V11.4087C128.045 8.0781 127.796 7.86182 125.298 7.67798V6.9751H133.354V7.67798C130.845 7.86182 130.608 8.0781 130.608 11.4087V22.3955Z" fill="#848484"/>
<path d="M143.303 6.9751V7.67798C140.859 7.86182 140.61 8.0781 140.61 11.4087V17.3779C140.61 19.9732 140.956 21.9305 141.897 23.3038C142.849 24.6447 144.255 25.4125 146.298 25.4125C148.223 25.4125 149.802 24.5907 150.786 23.1308C151.792 21.5953 152.159 18.9135 152.159 16.3506V15.1178C152.159 11.917 152.04 10.2408 151.911 9.28924C151.759 8.21868 150.937 7.78613 148.926 7.69962V6.99672H156.247V7.69962C154.571 7.7645 153.781 8.21868 153.619 9.28924C153.5 10.2408 153.381 11.917 153.381 15.1178V16.7507C153.381 20.2868 152.83 22.7956 151.056 24.688C149.748 26.0938 147.553 26.8832 145.412 26.8832C143.725 26.8832 141.811 26.4831 140.405 25.326C138.783 24.0175 138.047 21.9413 138.047 18.4485V11.4195C138.047 8.08891 137.81 7.87263 135.247 7.6888V6.98591H143.303V6.9751Z" fill="#848484"/>
<path d="M162.951 6.97493L170.337 22.6981L177.593 6.97493H182.632V7.67781C179.983 7.89409 179.799 8.01304 179.896 11.4086L180.134 22.3953C180.221 25.8124 180.318 25.9098 183 26.1152V26.8181H174.944V26.1152C177.507 25.9098 177.593 25.8124 177.561 22.3953L177.442 10.0893H177.312L169.84 26.4829H169.072L162.021 10.511H161.957L161.654 19.0322C161.535 21.8979 161.535 23.574 161.654 24.5256C161.805 25.661 162.54 25.953 164.519 26.1152V26.8181H157.35V26.1152C159.058 25.9638 159.696 25.661 159.913 24.5256C160.097 23.574 160.28 21.7465 160.443 18.7186L160.767 12.3061C160.983 8.21851 160.767 7.88328 157.901 7.66701V6.96411H162.93L162.951 6.97493Z" fill="#848484"/>
<path d="M74.5816 6.9751C74.4843 8.38088 74.3653 10.0138 74.2463 11.5926H75.0141C75.3818 10.2517 75.7386 9.39737 76.0739 8.96482C76.528 8.39169 77.3607 7.99158 80.075 7.99158H81.5132V22.4063C81.5132 25.7261 81.2645 25.9532 78.4097 26.1262V26.8291H87.3202V26.1262C84.3356 25.9424 84.0869 25.7261 84.0869 22.4063V7.99158H86.1307C88.0231 7.99158 88.9639 8.20786 89.4829 8.7918C89.9479 9.27842 90.2723 10.1327 90.5751 11.6034H91.3321C91.2348 10.1327 91.0941 8.28355 91.0076 6.98591H74.5816V6.9751Z" fill="#848484"/>
<path d="M73.4785 24.9475C72.6567 24.0392 72.0187 23.2498 70.9157 21.6277C69.9965 20.2868 68.7421 18.1781 68.2014 17.259C70.6778 16.2533 72.2241 14.4474 72.2241 11.917C72.2241 10.1435 71.4347 8.78099 70.2128 8.01321C69.0773 7.24544 67.3364 6.9751 65.3899 6.9751H60.3182V7.98077H63.119C63.465 7.98077 64.1463 7.98077 64.8708 7.98077C67.1525 7.98077 69.4774 9.13784 69.4774 12.3387C69.4774 13.831 69.0233 15.3341 67.7148 16.3722C66.8929 17.0427 65.9089 17.0751 64.6545 17.0751H60.3182V18.0808H64.5247C65.4763 18.0808 65.963 18.3836 66.4496 19.173C67.3039 20.6112 68.5907 22.828 69.5315 24.2014C70.6886 25.8775 71.7591 26.9481 75.2736 27.0346H75.6953L75.7494 26.4614C74.6572 26.1911 74.1057 25.6937 73.4677 24.9367" fill="#848484"/>
<path d="M122.216 24.9905C121.394 24.0713 120.756 23.2495 119.653 21.6382C118.734 20.2973 117.491 18.1886 116.939 17.2695C119.405 16.2638 120.973 14.4579 120.973 11.9275C120.973 10.1648 120.183 8.79149 118.961 8.02371C117.837 7.25594 116.096 6.9856 114.138 6.9856H109.067V7.99127H111.867C112.213 7.99127 112.895 8.00209 113.619 8.00209C115.912 8.00209 118.226 9.15916 118.226 12.36C118.226 13.8523 117.772 15.3554 116.463 16.3935C115.631 17.064 114.657 17.0964 113.403 17.0964H109.067V18.1021H113.284C114.225 18.1021 114.722 18.4049 115.209 19.1943C116.063 20.6325 117.35 22.8926 118.291 24.2659C119.459 25.9529 120.518 27.0126 124.033 27.1099H124.455L124.52 26.526C123.417 26.2557 122.865 25.7582 122.227 25.0013" fill="#848484"/>
<path d="M48.4015 18.1131H53.7976L51.1158 10.5976H51.0509L48.3907 18.1131H48.4015ZM54.2301 26.1045L55.2033 25.9855C56.3388 25.8666 56.4577 25.5313 56.155 24.5797C55.9387 23.8444 55.052 21.4654 54.1977 19.2702H48.0014C47.6986 20.0704 46.9092 22.4494 46.4767 23.7254C45.8927 25.4989 46.1739 25.899 47.5473 26.018L48.4664 26.1045V26.8074H41.9349V26.1045C42.1945 26.0828 42.4323 26.0504 42.6378 26.018C44.0003 25.7909 44.3031 25.3475 45.2331 22.9901L51.3861 7.11556L52.1647 6.84521L54.3815 12.3062C55.8197 16.1775 57.1607 20.0596 58.3502 23.1739C59.3234 25.7368 59.7235 25.9531 61.6159 26.1045V26.8074H54.2301V26.1045Z" fill="#848484"/>
<path d="M17.8203 0C18.9557 0.0973236 19.6478 0.281162 20.5021 0.562319C25.5738 2.2817 28.6016 10.7813 19.2693 15.5934C19.2153 15.6258 18.7935 15.8205 18.7287 15.8529C18.4042 15.9827 18.069 16.1341 17.723 16.2855C11.8728 18.8051 8.40154 19.5188 6.83355 23.3252C4.96278 28.4401 8.95305 33.8037 17.9285 33.9335C16.793 33.8362 16.1009 33.6631 15.2466 33.3712C10.1641 31.6518 7.12554 23.1306 16.5119 18.3185C16.5767 18.286 16.9985 18.0914 17.0634 18.0589C17.3661 17.9292 17.6905 17.7994 18.0149 17.6588C23.876 15.1392 27.3364 14.4363 28.9152 10.6299C30.7859 5.515 26.8173 0.151395 17.8311 0.010816" fill="#848484"/>
<path d="M31.5645 6.95337C33.165 9.31076 32.8298 12.9334 29.9749 14.8474C26.5362 17.1399 21.9186 17.659 19.3017 18.5998C17.5932 19.1837 16.0793 20.3948 15.1601 22.125C13.2136 25.7584 14.5762 30.2786 18.2096 32.2359C20.3723 33.3929 22.8487 33.3821 24.9033 32.4089C25.617 32.0953 28.9259 30.5381 31.4672 27.0994C33.4569 24.4067 34.5599 21.3032 34.7762 18.178C35.0898 13.7877 33.7489 10.0028 31.5537 6.96419" fill="#848484"/>
<path d="M44.7357 54.7605C44.7357 55.8851 45.0493 56.1879 46.0983 56.1879C47.45 56.1771 48.6503 55.5175 48.6503 53.8846C48.6503 52.2517 47.504 51.5705 45.4927 51.5705H44.7357V54.7605ZM45.5035 51.0514C47.3094 51.0514 48.0664 50.3593 48.0664 49.0509C48.0664 47.9911 47.4391 47.0503 45.882 47.0503C45.471 47.0503 45.1142 47.1152 44.9412 47.2125C44.7898 47.3098 44.7249 47.4829 44.7249 47.9911V51.0622H45.4927L45.5035 51.0514ZM47.3634 51.2352C48.9855 51.4731 50.2723 52.1544 50.2723 53.7224C50.2723 54.7713 49.6668 55.5715 48.6936 56.0798C47.8609 56.5231 46.7687 56.707 45.471 56.707H41.8376V56.2636C43.2542 56.1663 43.3516 56.0798 43.3516 54.7605V48.4561C43.3516 47.1585 43.2867 47.0611 41.9674 46.9746V46.5312H46.1956C47.4284 46.5312 48.1529 46.7151 48.6611 47.0611C49.2559 47.4396 49.5802 48.1209 49.5802 48.8454C49.5802 50.3377 48.2826 50.9433 47.3634 51.1812V51.2244V51.2352Z" fill="#848484"/>
<path d="M62.8596 54.2524C62.7622 54.7715 62.427 56.2422 62.2864 56.7288H54.36V56.2854C55.8523 56.1773 55.982 56.0475 55.982 54.7823V48.5536C55.982 47.1478 55.8523 47.0937 54.5654 46.9856V46.5422H61.8971C61.8971 46.9315 61.9836 48.0021 62.0269 48.7915L61.5511 48.8672C61.3997 48.2076 61.2375 47.8615 61.0212 47.5263C60.7941 47.2019 60.3508 47.0829 59.1613 47.0829H57.9069C57.3986 47.0829 57.3662 47.1154 57.3662 47.5804V51.1273H58.9125C60.394 51.1273 60.4805 50.9975 60.686 49.9594H61.1618V52.9656H60.686C60.4697 51.841 60.3616 51.7436 58.9233 51.7436H57.3662V54.7066C57.3662 55.4419 57.4635 55.7663 57.7554 55.9718C58.069 56.1556 58.6422 56.1773 59.464 56.1773C60.7076 56.1773 61.1726 56.0475 61.5295 55.6474C61.8107 55.3338 62.1242 54.8039 62.3297 54.1767L62.8271 54.2416L62.8596 54.2524Z" fill="#848484"/>
<path d="M75.4466 48.9754C75.2628 48.2292 75.1222 47.8291 74.9168 47.5804C74.6572 47.2019 74.3761 47.0938 73.1433 47.0938H71.9754V54.7932C71.9754 56.0259 72.1052 56.1881 73.6732 56.2855V56.718H68.9584V56.2855C70.4507 56.1881 70.5913 56.0367 70.5913 54.7932V47.0938H69.5748C68.2123 47.0938 67.877 47.2236 67.6716 47.5804C67.4769 47.8508 67.3472 48.2833 67.1417 48.9754H66.6659C66.7524 48.0346 66.8281 47.0181 66.8605 46.1638H67.1849C67.412 46.5207 67.6283 46.5531 68.0825 46.5531H74.5707C75.0141 46.5531 75.1438 46.4558 75.4142 46.1638H75.7602C75.7602 46.8883 75.8467 48.0238 75.9224 48.9321L75.4466 48.9754Z" fill="#848484"/>
<path d="M88.2827 54.2524C88.1853 54.7715 87.8609 56.2422 87.7095 56.7288H79.7831V56.2854C81.2754 56.1773 81.4159 56.0475 81.4159 54.7823V48.5536C81.4159 47.1478 81.2861 47.0937 79.9993 46.9856V46.5422H87.331C87.331 46.9315 87.4175 48.0021 87.4608 48.7915L86.985 48.8672C86.8336 48.2076 86.6714 47.8615 86.4551 47.5263C86.228 47.2019 85.7846 47.0829 84.5951 47.0829H83.3408C82.8325 47.0829 82.8001 47.1154 82.8001 47.5804V51.1273H84.3464C85.8279 51.1273 85.9036 50.9975 86.1199 49.9594H86.5957V52.9656H86.1199C85.9036 51.841 85.7955 51.7436 84.3573 51.7436H82.8001V54.7066C82.8001 55.4419 82.8974 55.7663 83.1894 55.9718C83.503 56.1556 84.0761 56.1773 84.898 56.1773C86.1415 56.1773 86.6065 56.0475 86.9633 55.6474C87.2445 55.3338 87.5581 54.8039 87.7636 54.1767L88.261 54.2416L88.2827 54.2524Z" fill="#848484"/>
<path d="M95.0952 51.8085C95.3115 51.8841 95.7548 51.9923 96.2955 51.9923C97.3661 51.9923 98.6745 51.4408 98.6745 49.4619C98.6745 47.7749 97.5391 47.0504 96.1982 47.0504C95.7332 47.0504 95.3871 47.1261 95.279 47.2342C95.1492 47.3424 95.106 47.537 95.106 47.9696V51.7976L95.0952 51.8085ZM96.4253 46.553C97.5931 46.553 98.534 46.7368 99.1828 47.2126C99.8208 47.6668 100.253 48.3805 100.253 49.4186C100.253 51.4408 98.6421 52.4248 97.0525 52.6303C96.8038 52.6411 96.4902 52.6411 96.3172 52.6303L95.106 52.3275V54.7822C95.106 56.1123 95.2574 56.188 96.7281 56.2853V56.7287H92.2728V56.2853C93.5921 56.188 93.7218 56.0691 93.7218 54.7714V48.5103C93.7218 47.1369 93.5921 47.072 92.3809 46.9963V46.553H96.4469H96.4253Z" fill="#848484"/>
<path d="M111.348 56.718V56.2854C112.614 56.1881 112.765 56.1124 112.765 54.7715V50.6839C112.765 50.1648 112.765 49.2781 112.851 47.775H112.787L107.574 55.961C107.445 56.1448 107.423 56.3503 107.423 56.5558V56.7288H104.536V56.2962C105.779 56.1989 105.92 56.0908 105.92 54.6634V48.4238C105.92 47.1911 105.79 47.0937 104.536 46.9964V46.5531H108.677V46.9964C107.445 47.0937 107.282 47.1802 107.282 48.4022V52.2194C107.282 52.944 107.282 53.755 107.217 55.3014H107.25L112.408 47.2235C112.559 47.0072 112.592 46.845 112.592 46.7044V46.5422H115.533V46.9856C114.279 47.0829 114.138 47.2019 114.138 48.5968V54.7607C114.138 56.1016 114.29 56.1881 115.533 56.2746V56.7071H111.359L111.348 56.718Z" fill="#848484"/>
<path d="M131.148 46.9855C129.797 47.0937 129.667 47.1694 129.667 48.4778V54.8039C129.667 56.1231 129.797 56.1988 131.127 56.2961V56.7395H126.725V56.2961C128.12 56.1988 128.272 56.1231 128.272 54.8039V51.6787H122.67V54.8039C122.67 56.1015 122.8 56.1988 124.152 56.2961V56.7395H119.826V56.2961C121.146 56.1988 121.275 56.1231 121.275 54.8039V48.4778C121.275 47.1585 121.146 47.1045 119.794 46.9855V46.553H124.054V46.9855C122.811 47.0937 122.67 47.1694 122.67 48.4778V51.0082H128.272V48.4778C128.272 47.1802 128.142 47.1045 126.855 46.9855V46.553H131.148V46.9855Z" fill="#848484"/>
<path d="M140.145 48.3484H140.113C139.583 49.6893 139.064 51.0518 138.566 52.3387H141.594L140.145 48.3484ZM141.756 56.7182V56.2857C142.795 56.1559 142.935 56.037 142.73 55.4206C142.513 54.815 142.189 53.9607 141.821 53.0091H138.318C138.058 53.712 137.809 54.3717 137.593 55.0313C137.225 56.0153 137.377 56.1776 138.61 56.2857V56.7182H135.041V56.2857C136.079 56.1451 136.306 56.0478 136.879 54.6744L140.286 46.456L140.794 46.3154C141.811 49.008 142.914 51.9818 143.962 54.7069C144.492 56.0478 144.709 56.1992 145.768 56.2857V56.7182H141.746H141.756Z" fill="#848484"/>
<path d="M152.841 51.8085C153.057 51.8841 153.5 51.9923 154.041 51.9923C155.111 51.9923 156.42 51.4408 156.42 49.4619C156.42 47.7749 155.284 47.0504 153.944 47.0504C153.479 47.0504 153.143 47.1261 153.024 47.2342C152.895 47.3424 152.841 47.537 152.841 47.9696V51.7976V51.8085ZM154.171 46.553C155.339 46.553 156.279 46.7368 156.928 47.2126C157.566 47.6668 157.999 48.3805 157.999 49.4186C157.999 51.4408 156.388 52.4248 154.787 52.6303C154.538 52.6411 154.225 52.6411 154.052 52.6303L152.841 52.3275V54.7822C152.841 56.1123 152.992 56.188 154.473 56.2853V56.7287H150.018V56.2853C151.337 56.188 151.467 56.0691 151.467 54.7714V48.5103C151.467 47.1369 151.337 47.072 150.116 46.9963V46.553H154.171Z" fill="#848484"/>
<path d="M162.205 56.7179V56.2853C163.557 56.188 163.687 56.1015 163.687 54.7714V48.5103C163.687 47.1802 163.557 47.0828 162.205 46.9963V46.553H166.563V46.9963C165.211 47.0937 165.082 47.1802 165.082 48.5103V54.7714C165.082 56.1123 165.211 56.1988 166.563 56.2853V56.7179H162.205Z" fill="#848484"/>
<path d="M177.161 47.7858C177.161 47.2019 176.998 47.0613 176.209 47.0829C174.057 47.0937 173.625 48.5968 173.646 49.4295C173.7 51.0516 174.847 51.7112 176.469 51.7112H177.161V47.7858ZM179.918 46.9856C178.664 47.0829 178.534 47.1911 178.534 48.4995V54.739C178.534 56.1016 178.664 56.1773 179.918 56.2746V56.7071H175.809V56.2746C177.031 56.1773 177.161 56.1016 177.161 54.739V52.2411H176.523C175.679 52.2411 175.312 52.4898 174.847 53.2251C174.501 53.8091 174.209 54.4146 173.679 55.3879C172.987 56.6098 172.435 56.7396 171.494 56.7504H170.424V56.3287C171.051 56.253 171.397 56.0908 171.743 55.7015C172.121 55.2689 172.543 54.4687 173.16 53.4955C173.798 52.479 174.371 52.1329 174.89 52.0356V52.0032C174.219 51.9059 172.208 51.3327 172.176 49.3862C172.154 48.0129 173.084 46.5422 175.971 46.5422H179.94V46.9748L179.918 46.9856Z" fill="#848484"/>
</svg>
