<svg width="151" height="188" viewBox="0 0 151 188" fill="none" xmlns="http://www.w3.org/2000/svg">
<g clip-path="url(#clip0_282_2634)">
<path opacity="0.25" d="M49.9102 151.56C76.0602 141.55 100.94 156.2 142.11 140.66L143.67 144.73C144.83 147.76 143.32 151.14 140.29 152.3L67.1902 180.29C64.1602 181.45 60.7802 179.94 59.6202 176.91L49.9102 151.55V151.56Z" fill="#D62242"/>
<path d="M67.2402 187.58C60.0702 187.58 53.2602 182.94 50.7701 176.2L44.9801 161.09C44.4801 159.8 43.6301 157.57 42.7801 155.35C41.9501 153.16 41.1201 150.99 40.6401 149.75C38.3201 144.11 38.3001 137.59 40.6401 131.94L40.6901 131.82C42.6101 127.49 47.6502 116.19 50.1101 110.67L51.5401 107.47C53.1101 104.2 51.8601 99.87 48.8201 98.01C47.8401 97.4 46.1401 96.66 44.6301 96.01C43.8102 95.66 43.0301 95.32 42.3701 95L27.6202 88.42C27.1902 88.22 26.7702 88.04 26.3302 87.85C23.8801 86.77 20.8402 85.44 18.6102 83.49C15.4802 80.95 13.0401 77.58 11.5501 73.75L2.77015 50.87C2.59015 50.37 2.38015 49.83 2.16015 49.27C1.14015 46.69 -0.12985 43.49 0.0101498 40.24C0.0101498 33.35 4.22015 26.96 10.5301 24.25C11.0301 24.01 11.8501 23.69 14.0701 22.86C14.7401 22.61 15.3202 22.39 15.5501 22.3L15.7101 22.24C17.5501 21.55 19.6602 20.72 21.8102 19.87C24.9701 18.63 28.2302 17.34 30.9402 16.38C39.3502 13.49 48.0101 10.81 56.3901 8.22996C60.9001 6.82996 65.4102 5.43996 69.8702 4.01996L77.4402 1.50996C78.7802 1.00996 80.7702 0.369963 82.9802 0.319963C89.2602 0.0699634 95.1902 4.00996 97.3702 9.89996C100.14 17.13 103.41 25.03 106.57 32.15L108.2 35.79C110.65 40.96 111 46.98 109.16 52.32C106.03 60.85 103.01 68.8 100.38 75.4L99.5201 77.46C98.5101 79.73 98.5201 82.22 99.5602 84.14C100.36 85.67 101.59 86.86 103.07 87.55C103.83 87.91 105.25 88.54 106.52 89.1C107.31 89.45 108.04 89.78 108.53 90C109.78 90.56 113.77 92.34 117.76 94.12C121.83 95.93 125.9 97.75 127.06 98.27C132.7 100.78 137.21 105.53 139.43 111.31L145.24 126.49C145.71 127.77 146.65 130.21 147.57 132.57C148.38 134.65 149.16 136.68 149.57 137.8C152.49 144.7 150.67 152.85 145.12 157.75C142.86 159.98 139.82 161.09 137.37 161.99C136.7 162.24 136.05 162.47 135.47 162.72L135.29 162.79L74.6202 186.02C73.0202 186.66 70.8001 187.43 68.3102 187.55C67.9501 187.57 67.5901 187.59 67.2402 187.59V187.58ZM49.8501 135.81C48.5401 139.02 48.5602 142.74 49.9101 146.02C50.4301 147.36 51.2801 149.57 52.1201 151.79C52.9501 153.98 53.7901 156.18 54.3001 157.48L60.1201 172.68C61.2401 175.71 64.4802 177.79 67.6802 177.57H67.8002C68.8302 177.52 70.1102 177.05 70.9802 176.7L131.63 153.48C132.39 153.16 133.18 152.87 133.96 152.59C135.43 152.05 137.45 151.32 138.12 150.62L138.46 150.3C140.81 148.28 141.63 144.55 140.36 141.63L140.26 141.37C139.87 140.31 139.08 138.27 138.27 136.17C137.33 133.73 136.35 131.22 135.9 129.97L130.12 114.87C128.87 111.6 126.21 108.8 123.01 107.38C121.83 106.85 117.78 105.04 113.72 103.23C109.72 101.45 105.71 99.66 104.45 99.09C103.96 98.87 103.24 98.55 102.48 98.21C101.16 97.62 99.6802 96.96 98.8902 96.59C95.4202 94.97 92.5302 92.2 90.7502 88.79C88.2701 84.18 88.1202 78.55 90.4002 73.42L91.1602 71.6C93.7202 65.15 96.7102 57.29 99.7802 48.94C100.75 46.13 100.55 42.85 99.1902 40.02L99.1402 39.91L97.4702 36.2C94.2302 28.9 90.8802 20.82 88.0502 13.42L88.0201 13.35C87.3601 11.55 85.2702 10.22 83.3302 10.28C82.4202 10.3 81.2601 10.74 80.8801 10.88L80.7001 10.94L72.9802 13.5C68.4402 14.95 63.9002 16.35 59.3601 17.75C51.0602 20.32 42.4701 22.97 34.2601 25.79C31.7601 26.68 28.5702 27.94 25.4902 29.15C23.3001 30.01 21.1602 30.85 19.3001 31.55C18.9802 31.68 18.3402 31.92 17.6002 32.2C16.7902 32.5 15.3201 33.05 14.8601 33.25L14.5501 33.39C11.9002 34.5 10.0001 37.4 10.0202 40.3V40.47V40.64C9.95015 41.73 10.8701 44.04 11.4701 45.57C11.7302 46.22 11.9701 46.85 12.1802 47.43L20.8801 70.14C21.7502 72.36 23.1602 74.32 24.9701 75.77L25.1602 75.93C26.2201 76.88 28.6202 77.93 30.3602 78.7C30.8402 78.91 31.3102 79.12 31.7402 79.31L46.5401 85.91C47.2101 86.22 47.9001 86.52 48.6201 86.83C50.4401 87.62 52.5001 88.51 54.0701 89.49C61.3701 93.95 64.3001 103.92 60.6001 111.72L59.2501 114.74C56.8001 120.22 51.8101 131.43 49.8701 135.8L49.8501 135.81Z" fill="#236092"/>
<path opacity="0.25" d="M94.9702 133.24C103.25 133.24 109.97 126.52 109.97 118.24C109.97 109.96 103.25 103.24 94.9702 103.24C86.6902 103.24 79.9702 109.96 79.9702 118.24C79.9702 126.52 86.6902 133.24 94.9702 133.24Z" fill="#D62242"/>
<path d="M88.9202 117.57C88.9202 119.95 89.6101 121.75 91.7701 121.75C92.8101 121.75 93.7202 121.38 94.1102 121.22L94.4802 122.26C93.6802 122.77 92.4302 123.2 91.2602 123.2C87.7902 123.2 86.4102 121.39 86.4102 117.85C86.4102 114.1 88.0902 111.64 91.7402 111.64C92.4402 111.64 93.6602 111.77 94.3302 111.94C94.3302 112.79 94.2802 114.15 94.1702 115.03H93.1802C92.9202 114.58 92.7202 113.94 92.6002 113.36C92.3002 113.18 91.8202 113.09 91.4002 113.09C89.3802 113.09 88.9202 114.58 88.9202 117.56V117.57Z" fill="white"/>
<path d="M103.84 122.65C102.98 122.94 101.76 123.1 100.43 123.1C100.41 122.78 100.41 122.48 100.43 122.2C100.45 121.53 100.59 121 100.7 120.71L100.65 120.69C100.43 121.07 100.27 121.28 100.01 121.55C99.1001 122.54 97.8001 123.23 96.9501 123.23C95.8801 123.23 95.5601 122.13 95.5601 121.05C95.5601 118.67 97.5601 117.98 100.46 117.99V117.56C100.46 116.44 100.03 116.06 99.0201 116.06C98.5901 116.06 98.0801 116.16 97.7101 116.28C97.6001 116.76 97.4901 117.21 97.3101 117.59L96.2201 117.7C96.1101 117.04 96.0601 116.31 96.0401 115.46C96.9501 115.04 98.2701 114.74 99.6101 114.74C101.56 114.74 102.72 115.3 102.72 117.2C102.72 118.93 102.59 120.95 102.67 121.62C103.07 121.75 103.41 121.81 103.84 121.86V122.65ZM100.44 119.14C98.5701 119 97.9101 119.41 97.9101 120.56C97.9101 121.04 97.9701 121.62 98.1701 121.62C98.5901 121.62 99.8001 120.68 100.44 119.51V119.14Z" fill="white"/>
<path d="M66.8999 85.1C75.1799 85.1 81.8999 78.38 81.8999 70.1C81.8999 61.82 75.1799 55.1 66.8999 55.1C58.6199 55.1 51.8999 61.82 51.8999 70.1C51.8999 78.38 58.6199 85.1 66.8999 85.1Z" fill="#236092"/>
<path d="M60.8498 69.43C60.8498 71.81 61.5398 73.61 63.6998 73.61C64.7398 73.61 65.6498 73.24 66.0398 73.08L66.4098 74.12C65.6098 74.63 64.3598 75.06 63.1898 75.06C59.7198 75.06 58.3398 73.25 58.3398 69.71C58.3398 65.96 60.0198 63.5 63.6698 63.5C64.3698 63.5 65.5898 63.63 66.2598 63.8C66.2598 64.65 66.2098 66.01 66.0998 66.89H65.1098C64.8498 66.44 64.6498 65.8 64.5298 65.22C64.2298 65.04 63.7498 64.95 63.3298 64.95C61.3098 64.95 60.8498 66.44 60.8498 69.42V69.43Z" fill="white"/>
<path d="M75.7702 74.51C74.9102 74.8 73.6902 74.96 72.3602 74.96C72.3402 74.64 72.3402 74.34 72.3602 74.06C72.3802 73.39 72.5202 72.86 72.6302 72.57L72.5802 72.55C72.3602 72.93 72.2002 73.14 71.9402 73.41C71.0302 74.4 69.7302 75.09 68.8802 75.09C67.8102 75.09 67.4902 73.99 67.4902 72.91C67.4902 70.53 69.4902 69.84 72.3902 69.85V69.42C72.3902 68.3 71.9602 67.92 70.9502 67.92C70.5202 67.92 70.0102 68.02 69.6402 68.14C69.5302 68.62 69.4202 69.07 69.2402 69.45L68.1502 69.56C68.0402 68.9 67.9902 68.17 67.9702 67.32C68.8802 66.9 70.2002 66.6 71.5402 66.6C73.4902 66.6 74.6502 67.16 74.6502 69.06C74.6502 70.79 74.5202 72.81 74.6002 73.48C75.0002 73.61 75.3402 73.67 75.7702 73.72V74.51ZM72.3702 71C70.5002 70.86 69.8402 71.27 69.8402 72.42C69.8402 72.9 69.9002 73.48 70.1002 73.48C70.5202 73.48 71.7302 72.54 72.3702 71.37V71Z" fill="white"/>
<path d="M34.1099 66.6C42.3899 66.6 49.1099 59.88 49.1099 51.6C49.1099 43.32 42.3899 36.6 34.1099 36.6C25.8299 36.6 19.1099 43.32 19.1099 51.6C19.1099 59.88 25.8299 66.6 34.1099 66.6Z" fill="#236092"/>
<path d="M28.0598 50.93C28.0598 53.31 28.7498 55.11 30.9098 55.11C31.9498 55.11 32.8598 54.74 33.2498 54.58L33.6198 55.62C32.8198 56.13 31.5698 56.56 30.3998 56.56C26.9298 56.56 25.5498 54.75 25.5498 51.21C25.5498 47.46 27.2298 45 30.8798 45C31.5798 45 32.7998 45.13 33.4698 45.3C33.4698 46.15 33.4198 47.51 33.3098 48.39H32.3198C32.0598 47.94 31.8598 47.3 31.7398 46.72C31.4398 46.54 30.9598 46.45 30.5398 46.45C28.5198 46.45 28.0598 47.94 28.0598 50.92V50.93Z" fill="white"/>
<path d="M42.9802 56.01C42.1202 56.3 40.9002 56.46 39.5702 56.46C39.5502 56.14 39.5502 55.84 39.5702 55.56C39.5902 54.89 39.7302 54.36 39.8402 54.07L39.7902 54.05C39.5702 54.43 39.4102 54.64 39.1502 54.91C38.2402 55.9 36.9402 56.59 36.0902 56.59C35.0202 56.59 34.7002 55.49 34.7002 54.41C34.7002 52.03 36.7002 51.34 39.6002 51.35V50.92C39.6002 49.8 39.1702 49.42 38.1602 49.42C37.7302 49.42 37.2202 49.52 36.8502 49.64C36.7402 50.12 36.6302 50.57 36.4502 50.95L35.3602 51.06C35.2502 50.4 35.2002 49.67 35.1802 48.82C36.0902 48.4 37.4102 48.1 38.7502 48.1C40.7002 48.1 41.8602 48.66 41.8602 50.56C41.8602 52.29 41.7302 54.31 41.8102 54.98C42.2102 55.11 42.5502 55.17 42.9802 55.22V56.01ZM39.5802 52.5C37.7102 52.36 37.0502 52.77 37.0502 53.92C37.0502 54.4 37.1102 54.98 37.3102 54.98C37.7302 54.98 38.9402 54.04 39.5802 52.87V52.5Z" fill="white"/>
<path d="M76.79 43.83C85.07 43.83 91.79 37.11 91.79 28.83C91.79 20.55 85.07 13.83 76.79 13.83C68.51 13.83 61.79 20.55 61.79 28.83C61.79 37.11 68.51 43.83 76.79 43.83Z" fill="#236092"/>
<path d="M70.74 28.16C70.74 30.54 71.43 32.34 73.59 32.34C74.63 32.34 75.54 31.97 75.93 31.81L76.3 32.85C75.5 33.36 74.25 33.79 73.08 33.79C69.61 33.79 68.23 31.98 68.23 28.44C68.23 24.69 69.91 22.23 73.56 22.23C74.26 22.23 75.48 22.36 76.15 22.53C76.15 23.38 76.1 24.74 75.99 25.62H75C74.74 25.17 74.54 24.53 74.42 23.95C74.12 23.77 73.64 23.68 73.22 23.68C71.2 23.68 70.74 25.17 70.74 28.15V28.16Z" fill="white"/>
<path d="M85.6599 33.24C84.7999 33.53 83.5799 33.69 82.2499 33.69C82.2299 33.37 82.2299 33.07 82.2499 32.79C82.2699 32.12 82.4099 31.59 82.5199 31.3L82.4699 31.28C82.2499 31.66 82.0899 31.87 81.8299 32.14C80.9199 33.13 79.6199 33.82 78.7699 33.82C77.6999 33.82 77.3799 32.72 77.3799 31.64C77.3799 29.26 79.3799 28.57 82.2799 28.58V28.15C82.2799 27.03 81.8499 26.65 80.8399 26.65C80.4099 26.65 79.8999 26.75 79.5299 26.87C79.4199 27.35 79.3099 27.8 79.1299 28.18L78.0399 28.29C77.9299 27.63 77.8799 26.9 77.8599 26.05C78.7699 25.63 80.0899 25.33 81.4299 25.33C83.3799 25.33 84.5399 25.89 84.5399 27.79C84.5399 29.52 84.4099 31.54 84.4899 32.21C84.8899 32.34 85.2299 32.4 85.6599 32.45V33.24ZM82.2599 29.73C80.3899 29.59 79.7299 30 79.7299 31.15C79.7299 31.63 79.7899 32.21 79.9899 32.21C80.4099 32.21 81.6199 31.27 82.2599 30.1V29.73Z" fill="white"/>
</g>
<defs>
<clipPath id="clip0_282_2634">
<rect width="150.97" height="187.29" fill="white" transform="translate(0 0.289978)"/>
</clipPath>
</defs>
</svg>
