<svg width="167" height="167" viewBox="0 0 167 167" fill="none" xmlns="http://www.w3.org/2000/svg">
<g clip-path="url(#clip0_282_2614)">
<path d="M83.14 166.28C37.3 166.28 0 128.98 0 83.14C0 37.3 37.3 0 83.14 0C90.03 0 96.88 0.85 103.51 2.51C106.19 3.18 107.81 5.9 107.14 8.58C106.47 11.26 103.75 12.88 101.07 12.21C95.25 10.74 89.22 10 83.15 10C42.81 10 10 42.81 10 83.14C10 123.47 42.81 156.28 83.14 156.28C123.47 156.28 156.28 123.47 156.28 83.14C156.28 77.23 155.57 71.36 154.18 65.67C153.52 62.99 155.17 60.28 157.85 59.62C160.53 58.96 163.24 60.6 163.9 63.29C165.48 69.75 166.28 76.43 166.28 83.14C166.28 128.98 128.98 166.28 83.14 166.28Z" fill="#236092"/>
<path d="M20.1401 51.28C28.4201 51.28 35.1401 44.56 35.1401 36.28C35.1401 28 28.4201 21.28 20.1401 21.28C11.8601 21.28 5.14014 28 5.14014 36.28C5.14014 44.56 11.8601 51.28 20.1401 51.28Z" fill="#236092"/>
<path d="M14.0901 35.61C14.0901 37.99 14.7801 39.79 16.9401 39.79C17.9801 39.79 18.8901 39.42 19.2801 39.26L19.6501 40.3C18.8501 40.81 17.6001 41.24 16.4301 41.24C12.9601 41.24 11.5801 39.43 11.5801 35.89C11.5801 32.14 13.2601 29.68 16.9101 29.68C17.6101 29.68 18.8301 29.81 19.5001 29.98C19.5001 30.83 19.4501 32.19 19.3401 33.07H18.3501C18.0901 32.62 17.8901 31.98 17.7701 31.4C17.4701 31.22 16.9901 31.13 16.5701 31.13C14.5501 31.13 14.0901 32.62 14.0901 35.6V35.61Z" fill="white"/>
<path d="M29.01 40.69C28.15 40.98 26.93 41.14 25.6 41.14C25.58 40.82 25.58 40.52 25.6 40.24C25.62 39.57 25.76 39.04 25.87 38.75L25.82 38.73C25.6 39.11 25.44 39.32 25.18 39.59C24.27 40.58 22.97 41.27 22.12 41.27C21.05 41.27 20.73 40.17 20.73 39.09C20.73 36.71 22.73 36.02 25.63 36.03V35.6C25.63 34.48 25.2 34.1 24.19 34.1C23.76 34.1 23.25 34.2 22.88 34.32C22.77 34.8 22.66 35.25 22.48 35.63L21.39 35.74C21.28 35.08 21.23 34.35 21.21 33.5C22.12 33.08 23.44 32.78 24.78 32.78C26.73 32.78 27.89 33.34 27.89 35.24C27.89 36.97 27.76 38.99 27.84 39.66C28.24 39.79 28.58 39.85 29.01 39.9V40.69ZM25.62 37.18C23.75 37.04 23.09 37.45 23.09 38.6C23.09 39.08 23.15 39.66 23.35 39.66C23.77 39.66 24.98 38.72 25.62 37.55V37.18Z" fill="white"/>
<path d="M122.14 112.28C130.43 112.28 137.14 105.57 137.14 97.28C137.14 88.99 130.43 82.28 122.14 82.28C113.85 82.28 107.14 89 107.14 97.28C107.14 105.56 113.86 112.28 122.14 112.28Z" fill="#236092"/>
<path d="M116.09 96.61C116.09 98.99 116.78 100.79 118.94 100.79C119.98 100.79 120.89 100.42 121.28 100.26L121.65 101.3C120.85 101.81 119.6 102.24 118.43 102.24C114.96 102.24 113.58 100.43 113.58 96.89C113.58 93.14 115.26 90.68 118.91 90.68C119.61 90.68 120.83 90.81 121.5 90.98C121.5 91.83 121.45 93.19 121.34 94.07H120.35C120.09 93.62 119.89 92.98 119.77 92.4C119.47 92.22 118.99 92.13 118.57 92.13C116.55 92.13 116.09 93.62 116.09 96.6V96.61Z" fill="white"/>
<path d="M131.01 101.69C130.15 101.98 128.93 102.14 127.6 102.14C127.58 101.82 127.58 101.52 127.6 101.24C127.62 100.57 127.76 100.04 127.87 99.75L127.82 99.73C127.6 100.11 127.44 100.32 127.18 100.59C126.27 101.58 124.97 102.27 124.12 102.27C123.05 102.27 122.73 101.17 122.73 100.09C122.73 97.71 124.73 97.02 127.63 97.03V96.6C127.63 95.48 127.2 95.1 126.19 95.1C125.76 95.1 125.25 95.2 124.88 95.32C124.77 95.8 124.66 96.25 124.48 96.63L123.39 96.74C123.28 96.08 123.23 95.35 123.21 94.5C124.12 94.08 125.44 93.78 126.78 93.78C128.73 93.78 129.89 94.34 129.89 96.24C129.89 97.97 129.76 99.99 129.84 100.66C130.24 100.79 130.58 100.85 131.01 100.9V101.69ZM127.62 98.18C125.75 98.04 125.09 98.45 125.09 99.6C125.09 100.08 125.15 100.66 125.35 100.66C125.77 100.66 126.98 99.72 127.62 98.55V98.18Z" fill="white"/>
<path d="M36.1401 161.28C44.4201 161.28 51.1401 154.56 51.1401 146.28C51.1401 138 44.4201 131.28 36.1401 131.28C27.8601 131.28 21.1401 138 21.1401 146.28C21.1401 154.56 27.8601 161.28 36.1401 161.28Z" fill="#236092"/>
<path d="M30.0901 145.61C30.0901 147.99 30.7801 149.79 32.9401 149.79C33.9801 149.79 34.8901 149.42 35.2801 149.26L35.6501 150.3C34.8501 150.81 33.6001 151.24 32.4301 151.24C28.9601 151.24 27.5801 149.43 27.5801 145.89C27.5801 142.14 29.2601 139.68 32.9101 139.68C33.6101 139.68 34.8301 139.81 35.5001 139.98C35.5001 140.83 35.4501 142.19 35.3401 143.07H34.3501C34.0901 142.62 33.8901 141.98 33.7701 141.4C33.4701 141.22 32.9901 141.13 32.5701 141.13C30.5501 141.13 30.0901 142.62 30.0901 145.6V145.61Z" fill="white"/>
<path d="M45.01 150.69C44.15 150.98 42.93 151.14 41.6 151.14C41.58 150.82 41.58 150.52 41.6 150.24C41.62 149.57 41.76 149.04 41.87 148.75L41.82 148.73C41.6 149.11 41.44 149.32 41.18 149.59C40.27 150.58 38.97 151.27 38.12 151.27C37.05 151.27 36.73 150.17 36.73 149.09C36.73 146.71 38.73 146.02 41.63 146.03V145.6C41.63 144.48 41.2 144.1 40.19 144.1C39.76 144.1 39.25 144.2 38.88 144.32C38.77 144.8 38.66 145.25 38.48 145.63L37.39 145.74C37.28 145.08 37.23 144.35 37.21 143.5C38.12 143.08 39.44 142.78 40.78 142.78C42.73 142.78 43.89 143.34 43.89 145.24C43.89 146.97 43.76 148.99 43.84 149.66C44.24 149.79 44.58 149.85 45.01 149.9V150.69ZM41.62 147.18C39.75 147.04 39.09 147.45 39.09 148.6C39.09 149.08 39.15 149.66 39.35 149.66C39.77 149.66 40.98 148.72 41.62 147.55V147.18Z" fill="white"/>
<path d="M146.14 33.28C154.42 33.28 161.14 26.56 161.14 18.28C161.14 10 154.42 3.28 146.14 3.28C137.86 3.28 131.14 10 131.14 18.28C131.14 26.56 137.86 33.28 146.14 33.28Z" fill="#D62242"/>
<path d="M140.09 17.61C140.09 19.99 140.78 21.79 142.94 21.79C143.98 21.79 144.89 21.42 145.28 21.26L145.65 22.3C144.85 22.81 143.6 23.24 142.43 23.24C138.96 23.24 137.58 21.43 137.58 17.89C137.58 14.14 139.26 11.68 142.91 11.68C143.61 11.68 144.83 11.81 145.5 11.98C145.5 12.83 145.45 14.19 145.34 15.07H144.35C144.09 14.62 143.89 13.98 143.77 13.4C143.47 13.22 142.99 13.13 142.57 13.13C140.55 13.13 140.09 14.62 140.09 17.6V17.61Z" fill="white"/>
<path d="M155.01 22.69C154.15 22.98 152.93 23.14 151.6 23.14C151.58 22.82 151.58 22.52 151.6 22.24C151.62 21.57 151.76 21.04 151.87 20.75L151.82 20.73C151.6 21.11 151.44 21.32 151.18 21.59C150.27 22.58 148.97 23.27 148.12 23.27C147.05 23.27 146.73 22.17 146.73 21.09C146.73 18.71 148.73 18.02 151.63 18.03V17.6C151.63 16.48 151.2 16.1 150.19 16.1C149.76 16.1 149.25 16.2 148.88 16.32C148.77 16.8 148.66 17.25 148.48 17.63L147.39 17.74C147.28 17.08 147.23 16.35 147.21 15.5C148.12 15.08 149.44 14.78 150.78 14.78C152.73 14.78 153.89 15.34 153.89 17.24C153.89 18.97 153.76 20.99 153.84 21.66C154.24 21.79 154.58 21.85 155.01 21.9V22.69ZM151.62 19.18C149.75 19.04 149.09 19.45 149.09 20.6C149.09 21.08 149.15 21.66 149.35 21.66C149.77 21.66 150.98 20.72 151.62 19.55V19.18Z" fill="white"/>
<path d="M83.1899 131.33C78.0799 131.33 72.9499 130.51 67.9699 128.85C55.7599 124.8 45.8599 116.23 40.0899 104.73C28.1799 80.99 37.8099 51.99 61.5499 40.08C85.2899 28.18 114.29 37.8 126.2 61.55C127.99 65.12 129.33 68.88 130.19 72.75C130.79 75.45 129.09 78.12 126.39 78.71C123.69 79.3 121.02 77.61 120.43 74.91C119.75 71.85 118.69 68.86 117.27 66.03C107.84 47.22 84.8499 39.59 66.0399 49.02C56.9299 53.59 50.1399 61.44 46.9299 71.11C43.7199 80.79 44.4699 91.13 49.0399 100.25C53.6099 109.36 61.4599 116.15 71.1299 119.36C80.8099 122.57 91.1499 121.83 100.27 117.25C103.03 115.87 105.6 114.16 107.93 112.19C110.03 110.4 113.19 110.65 114.98 112.76C116.77 114.87 116.52 118.02 114.41 119.81C111.47 122.31 108.22 124.46 104.75 126.2C97.9499 129.61 90.5999 131.33 83.2099 131.33H83.1899Z" fill="#236092"/>
</g>
<defs>
<clipPath id="clip0_282_2614">
<rect width="166.28" height="166.28" fill="white"/>
</clipPath>
</defs>
</svg>
