<svg width="150" height="173" viewBox="0 0 150 173" fill="none" xmlns="http://www.w3.org/2000/svg">
<g clip-path="url(#clip0_282_2650)">
<path opacity="0.25" d="M48.7402 30C57.0202 30 63.7402 23.28 63.7402 15C63.7402 6.72 57.0302 0 48.7402 0C40.4502 0 33.7402 6.72 33.7402 15C33.7402 23.28 40.4602 30 48.7402 30Z" fill="#D62242"/>
<path d="M42.6902 14.33C42.6902 16.71 43.3802 18.51 45.5402 18.51C46.5802 18.51 47.4902 18.14 47.8802 17.98L48.2502 19.02C47.4502 19.53 46.2002 19.96 45.0302 19.96C41.5602 19.96 40.1802 18.15 40.1802 14.61C40.1802 10.86 41.8602 8.40002 45.5102 8.40002C46.2102 8.40002 47.4302 8.53002 48.1002 8.70002C48.1002 9.55002 48.0502 10.91 47.9402 11.79H46.9502C46.6902 11.34 46.4902 10.7 46.3702 10.12C46.0702 9.94002 45.5902 9.85003 45.1702 9.85003C43.1502 9.85003 42.6902 11.34 42.6902 14.32V14.33Z" fill="white"/>
<path d="M57.6101 19.41C56.7501 19.7 55.5301 19.86 54.2001 19.86C54.1801 19.54 54.1801 19.24 54.2001 18.96C54.2201 18.29 54.3601 17.76 54.4701 17.47L54.4201 17.45C54.2001 17.83 54.0401 18.04 53.7801 18.31C52.8701 19.3 51.5701 19.99 50.7201 19.99C49.6501 19.99 49.3301 18.89 49.3301 17.81C49.3301 15.43 51.3301 14.74 54.2301 14.75V14.32C54.2301 13.2 53.8001 12.82 52.7901 12.82C52.3601 12.82 51.8501 12.92 51.4801 13.04C51.3701 13.52 51.2601 13.97 51.0801 14.35L49.9901 14.46C49.8801 13.8 49.8301 13.07 49.8101 12.22C50.7201 11.8 52.0401 11.5 53.3801 11.5C55.3301 11.5 56.4901 12.06 56.4901 13.96C56.4901 15.69 56.3601 17.71 56.4401 18.38C56.8401 18.51 57.1801 18.57 57.6101 18.62V19.41ZM54.2101 15.9C52.3401 15.76 51.6801 16.17 51.6801 17.32C51.6801 17.8 51.7401 18.38 51.9401 18.38C52.3601 18.38 53.5701 17.44 54.2101 16.27V15.9Z" fill="white"/>
<path opacity="0.25" d="M134.74 118C143.02 118 149.74 111.28 149.74 103C149.74 94.72 143.02 88 134.74 88C126.46 88 119.74 94.72 119.74 103C119.74 111.28 126.46 118 134.74 118Z" fill="#D62242"/>
<path d="M128.69 102.33C128.69 104.71 129.38 106.51 131.54 106.51C132.58 106.51 133.49 106.14 133.88 105.98L134.25 107.02C133.45 107.53 132.2 107.96 131.03 107.96C127.56 107.96 126.18 106.15 126.18 102.61C126.18 98.86 127.86 96.4 131.51 96.4C132.21 96.4 133.43 96.53 134.1 96.7C134.1 97.55 134.05 98.91 133.94 99.79H132.95C132.69 99.34 132.49 98.7 132.37 98.12C132.07 97.94 131.59 97.85 131.17 97.85C129.15 97.85 128.69 99.34 128.69 102.32V102.33Z" fill="white"/>
<path d="M143.61 107.41C142.75 107.7 141.53 107.86 140.2 107.86C140.18 107.54 140.18 107.24 140.2 106.96C140.22 106.29 140.36 105.76 140.47 105.47L140.42 105.45C140.2 105.83 140.04 106.04 139.78 106.31C138.87 107.3 137.57 107.99 136.72 107.99C135.65 107.99 135.33 106.89 135.33 105.81C135.33 103.43 137.33 102.74 140.23 102.75V102.32C140.23 101.2 139.8 100.82 138.79 100.82C138.36 100.82 137.85 100.92 137.48 101.04C137.37 101.52 137.26 101.97 137.08 102.35L135.99 102.46C135.88 101.8 135.83 101.07 135.81 100.22C136.72 99.8 138.04 99.5 139.38 99.5C141.33 99.5 142.49 100.06 142.49 101.96C142.49 103.69 142.36 105.71 142.44 106.38C142.84 106.51 143.18 106.57 143.61 106.62V107.41ZM140.21 103.9C138.34 103.76 137.68 104.17 137.68 105.32C137.68 105.8 137.74 106.38 137.94 106.38C138.36 106.38 139.57 105.44 140.21 104.27V103.9Z" fill="white"/>
<path d="M78.7402 101C87.0202 101 93.7402 94.28 93.7402 86C93.7402 77.72 87.0202 71 78.7402 71C70.4602 71 63.7402 77.72 63.7402 86C63.7402 94.28 70.4602 101 78.7402 101Z" fill="#236092"/>
<path d="M72.6902 85.33C72.6902 87.71 73.3802 89.51 75.5402 89.51C76.5802 89.51 77.4902 89.14 77.8802 88.98L78.2502 90.02C77.4502 90.53 76.2002 90.96 75.0302 90.96C71.5602 90.96 70.1802 89.15 70.1802 85.61C70.1802 81.86 71.8602 79.4 75.5102 79.4C76.2102 79.4 77.4302 79.53 78.1002 79.7C78.1002 80.55 78.0502 81.91 77.9402 82.79H76.9502C76.6902 82.34 76.4902 81.7 76.3702 81.12C76.0702 80.94 75.5902 80.85 75.1702 80.85C73.1502 80.85 72.6902 82.34 72.6902 85.32V85.33Z" fill="white"/>
<path d="M87.6101 90.41C86.7501 90.7 85.5301 90.86 84.2001 90.86C84.1801 90.54 84.1801 90.24 84.2001 89.96C84.2201 89.29 84.3601 88.76 84.4701 88.47L84.4201 88.45C84.2001 88.83 84.0401 89.04 83.7801 89.31C82.8701 90.3 81.5701 90.99 80.7201 90.99C79.6501 90.99 79.3301 89.89 79.3301 88.81C79.3301 86.43 81.3301 85.74 84.2301 85.75V85.32C84.2301 84.2 83.8001 83.82 82.7901 83.82C82.3601 83.82 81.8501 83.92 81.4801 84.04C81.3701 84.52 81.2601 84.97 81.0801 85.35L79.9901 85.46C79.8801 84.8 79.8301 84.07 79.8101 83.22C80.7201 82.8 82.0401 82.5 83.3801 82.5C85.3301 82.5 86.4901 83.06 86.4901 84.96C86.4901 86.69 86.3601 88.71 86.4401 89.38C86.8401 89.51 87.1801 89.57 87.6101 89.62V90.41ZM84.2101 86.9C82.3401 86.76 81.6801 87.17 81.6801 88.32C81.6801 88.8 81.7401 89.38 81.9401 89.38C82.3601 89.38 83.5701 88.44 84.2101 87.27V86.9Z" fill="white"/>
<path opacity="0.25" d="M63.7402 173C72.0202 173 78.7402 166.28 78.7402 158C78.7402 149.72 72.0202 143 63.7402 143C55.4602 143 48.7402 149.72 48.7402 158C48.7402 166.28 55.4602 173 63.7402 173Z" fill="#D62242"/>
<path d="M57.6902 157.33C57.6902 159.71 58.3802 161.51 60.5402 161.51C61.5802 161.51 62.4902 161.14 62.8802 160.98L63.2502 162.02C62.4502 162.53 61.2002 162.96 60.0302 162.96C56.5602 162.96 55.1802 161.15 55.1802 157.61C55.1802 153.86 56.8602 151.4 60.5102 151.4C61.2102 151.4 62.4302 151.53 63.1002 151.7C63.1002 152.55 63.0502 153.91 62.9402 154.79H61.9502C61.6902 154.34 61.4902 153.7 61.3702 153.12C61.0702 152.94 60.5902 152.85 60.1702 152.85C58.1502 152.85 57.6902 154.34 57.6902 157.32V157.33Z" fill="white"/>
<path d="M72.6101 162.41C71.7501 162.7 70.5301 162.86 69.2001 162.86C69.1801 162.54 69.1801 162.24 69.2001 161.96C69.2201 161.29 69.3601 160.76 69.4701 160.47L69.4201 160.45C69.2001 160.83 69.0401 161.04 68.7801 161.31C67.8701 162.3 66.5701 162.99 65.7201 162.99C64.6501 162.99 64.3301 161.89 64.3301 160.81C64.3301 158.43 66.3301 157.74 69.2301 157.75V157.32C69.2301 156.2 68.8001 155.82 67.7901 155.82C67.3601 155.82 66.8501 155.92 66.4801 156.04C66.3701 156.52 66.2601 156.97 66.0801 157.35L64.9901 157.46C64.8801 156.8 64.8301 156.07 64.8101 155.22C65.7201 154.8 67.0401 154.5 68.3801 154.5C70.3301 154.5 71.4901 155.06 71.4901 156.96C71.4901 158.69 71.3601 160.71 71.4401 161.38C71.8401 161.51 72.1801 161.57 72.6101 161.62V162.41ZM69.2101 158.9C67.3401 158.76 66.6801 159.17 66.6801 160.32C66.6801 160.8 66.7401 161.38 66.9401 161.38C67.3601 161.38 68.5701 160.44 69.2101 159.27V158.9Z" fill="white"/>
<path d="M5.00009 137.53C3.91009 137.53 2.81009 137.17 1.89009 136.44C-0.269912 134.72 -0.619912 131.57 1.10009 129.41C14.8401 112.19 17.6601 96.03 20.1601 81.78C22.2101 70.08 24.1401 59.03 31.9301 50.3C40.0101 41.25 54.1801 37 69.1801 32.5C84.8101 27.81 100.97 22.97 107.18 12.84C108.62 10.49 111.7 9.74998 114.06 11.19C116.41 12.63 117.15 15.71 115.7 18.07C107.49 31.44 89.4701 36.85 72.0501 42.07C59.0401 45.97 45.5901 50.01 39.3901 56.95C33.5001 63.55 31.9601 72.35 30.0101 83.49C27.4401 98.16 24.2501 116.41 8.92009 135.63C7.93009 136.87 6.48009 137.51 5.01009 137.51L5.00009 137.53Z" fill="#236092"/>
<path d="M23.5099 140.78C22.2399 140.78 20.9599 140.3 19.9899 139.33C18.0299 137.38 18.0199 134.22 19.9699 132.26C30.0999 122.06 33.6699 108.75 37.1199 95.87C40.3699 83.76 43.4299 72.32 51.6599 64.12C59.3699 56.43 67.4899 54.26 76.0799 51.96C87.2599 48.97 99.9199 45.58 117.27 28.89C119.26 26.97 122.43 27.04 124.34 29.03C126.26 31.02 126.19 34.19 124.2 36.1C105 54.58 90.3999 58.49 78.6599 61.63C70.7699 63.74 64.5399 65.41 58.7199 71.21C52.3999 77.51 49.7999 87.22 46.7799 98.47C43.1699 111.95 39.0699 127.23 27.0599 139.32C26.0799 140.3 24.7999 140.8 23.5099 140.8V140.78Z" fill="#236092"/>
<path d="M33.74 154.87C32.57 154.87 31.4 154.46 30.45 153.64C28.37 151.82 28.16 148.67 29.97 146.59C44.76 129.64 57.85 125.21 69.4 121.31C77.86 118.45 85.86 115.74 94.39 108.33C103.42 100.48 106.08 91.93 109.45 81.1C113.39 68.44 118.29 52.69 135.21 33.69C137.04 31.63 140.21 31.44 142.27 33.28C144.33 35.12 144.52 38.28 142.68 40.34C127.2 57.72 122.84 71.72 119 84.07C115.46 95.43 112.12 106.17 100.95 115.88C90.93 124.59 81.62 127.74 72.61 130.79C61.26 134.63 50.53 138.26 37.51 153.18C36.52 154.31 35.13 154.89 33.74 154.89V154.87Z" fill="#236092"/>
</g>
<defs>
<clipPath id="clip0_282_2650">
<rect width="149.74" height="173" fill="white"/>
</clipPath>
</defs>
</svg>
