<svg width="151" height="188" viewBox="0 0 151 188" fill="none" xmlns="http://www.w3.org/2000/svg">
<g clip-path="url(#clip0_282_2615)">
<path d="M49.9102 151.27C76.0602 141.26 100.94 155.91 142.11 140.37L143.67 144.44C144.83 147.47 143.32 150.85 140.29 152.01L67.1902 180C64.1602 181.16 60.7802 179.65 59.6202 176.62L49.9102 151.26V151.27Z" fill="#D62242"/>
<path d="M67.2402 187.29C60.0702 187.29 53.2602 182.65 50.7701 175.91L44.9801 160.8C44.4801 159.51 43.6301 157.28 42.7801 155.06C41.9501 152.87 41.1201 150.7 40.6401 149.46C38.3201 143.82 38.3001 137.3 40.6401 131.65L40.6901 131.53C42.6101 127.2 47.6502 115.9 50.1101 110.38L51.5401 107.18C53.1101 103.91 51.8601 99.58 48.8201 97.72C47.8401 97.11 46.1401 96.37 44.6301 95.72C43.8102 95.37 43.0301 95.03 42.3701 94.71L27.6202 88.13C27.1902 87.93 26.7702 87.75 26.3302 87.56C23.8801 86.48 20.8402 85.15 18.6102 83.2C15.4802 80.66 13.0401 77.29 11.5501 73.46L2.77015 50.58C2.59015 50.08 2.38015 49.54 2.16015 48.98C1.14015 46.4 -0.12985 43.2 0.0101498 39.95C0.0101498 33.06 4.22015 26.67 10.5301 23.96C11.0301 23.72 11.8501 23.4 14.0701 22.57C14.7401 22.32 15.3202 22.1 15.5501 22.01L15.7101 21.95C17.5501 21.26 19.6602 20.43 21.8102 19.58C24.9701 18.34 28.2302 17.05 30.9402 16.09C39.3502 13.2 48.0101 10.52 56.3901 7.93999C60.9001 6.53999 65.4102 5.14999 69.8702 3.72999L77.4402 1.21999C78.7802 0.719985 80.7702 0.0799853 82.9802 0.0299853C89.2602 -0.220015 95.1902 3.71999 97.3702 9.60999C100.14 16.84 103.41 24.74 106.57 31.86L108.2 35.5C110.65 40.67 111 46.69 109.16 52.03C106.03 60.56 103.01 68.51 100.38 75.11L99.5201 77.17C98.5101 79.44 98.5201 81.93 99.5602 83.85C100.36 85.38 101.59 86.57 103.07 87.26C103.83 87.62 105.25 88.25 106.52 88.81C107.31 89.16 108.04 89.49 108.53 89.71C109.78 90.27 113.77 92.05 117.76 93.83C121.83 95.64 125.9 97.46 127.06 97.98C132.7 100.49 137.21 105.24 139.43 111.02L145.24 126.2C145.71 127.48 146.65 129.92 147.57 132.28C148.38 134.36 149.16 136.39 149.57 137.51C152.49 144.41 150.67 152.56 145.12 157.46C142.86 159.69 139.82 160.8 137.37 161.7C136.7 161.95 136.05 162.18 135.47 162.43L135.29 162.5L74.6202 185.73C73.0202 186.37 70.8001 187.14 68.3102 187.26C67.9501 187.28 67.5901 187.3 67.2402 187.3V187.29ZM49.8501 135.52C48.5401 138.73 48.5602 142.45 49.9101 145.73C50.4301 147.07 51.2801 149.28 52.1201 151.5C52.9501 153.69 53.7901 155.89 54.3001 157.19L60.1201 172.39C61.2401 175.42 64.4802 177.5 67.6802 177.28H67.8002C68.8302 177.23 70.1102 176.76 70.9802 176.41L131.63 153.19C132.39 152.87 133.18 152.58 133.96 152.3C135.43 151.76 137.45 151.03 138.12 150.33L138.46 150.01C140.81 147.99 141.63 144.26 140.36 141.34L140.26 141.08C139.87 140.02 139.08 137.98 138.27 135.88C137.33 133.44 136.35 130.93 135.9 129.68L130.12 114.58C128.87 111.31 126.21 108.51 123.01 107.09C121.83 106.56 117.78 104.75 113.72 102.94C109.72 101.16 105.71 99.37 104.45 98.8C103.96 98.58 103.24 98.26 102.48 97.92C101.16 97.33 99.6802 96.67 98.8902 96.3C95.4202 94.68 92.5302 91.91 90.7502 88.5C88.2701 83.89 88.1202 78.26 90.4002 73.13L91.1602 71.31C93.7202 64.86 96.7102 57 99.7802 48.65C100.75 45.84 100.55 42.56 99.1902 39.73L99.1402 39.62L97.4702 35.91C94.2302 28.61 90.8802 20.53 88.0502 13.13L88.0201 13.06C87.3601 11.26 85.2702 9.92999 83.3302 9.98999C82.4202 10.01 81.2601 10.45 80.8801 10.59L80.7001 10.65L72.9802 13.21C68.4402 14.66 63.9002 16.06 59.3601 17.46C51.0602 20.03 42.4701 22.68 34.2601 25.5C31.7601 26.39 28.5702 27.65 25.4902 28.86C23.3001 29.72 21.1602 30.56 19.3001 31.26C18.9802 31.39 18.3402 31.63 17.6002 31.91C16.7902 32.21 15.3201 32.76 14.8601 32.96L14.5501 33.1C11.9002 34.21 10.0001 37.11 10.0202 40.01V40.18V40.35C9.95015 41.44 10.8701 43.75 11.4701 45.28C11.7302 45.93 11.9701 46.56 12.1802 47.14L20.8801 69.85C21.7502 72.07 23.1602 74.03 24.9701 75.48L25.1602 75.64C26.2201 76.59 28.6202 77.64 30.3602 78.41C30.8402 78.62 31.3102 78.83 31.7402 79.02L46.5401 85.62C47.2101 85.93 47.9001 86.23 48.6201 86.54C50.4401 87.33 52.5001 88.22 54.0701 89.2C61.3701 93.66 64.3001 103.63 60.6001 111.43L59.2501 114.45C56.8001 119.93 51.8101 131.14 49.8701 135.51L49.8501 135.52Z" fill="#236092"/>
<path d="M94.9702 132.95C103.25 132.95 109.97 126.23 109.97 117.95C109.97 109.67 103.25 102.95 94.9702 102.95C86.6902 102.95 79.9702 109.67 79.9702 117.95C79.9702 126.23 86.6902 132.95 94.9702 132.95Z" fill="#D62242"/>
<path d="M88.9202 117.28C88.9202 119.66 89.6101 121.46 91.7701 121.46C92.8101 121.46 93.7202 121.09 94.1102 120.93L94.4802 121.97C93.6802 122.48 92.4302 122.91 91.2602 122.91C87.7902 122.91 86.4102 121.1 86.4102 117.56C86.4102 113.81 88.0902 111.35 91.7402 111.35C92.4402 111.35 93.6602 111.48 94.3302 111.65C94.3302 112.5 94.2802 113.86 94.1702 114.74H93.1802C92.9202 114.29 92.7202 113.65 92.6002 113.07C92.3002 112.89 91.8202 112.8 91.4002 112.8C89.3802 112.8 88.9202 114.29 88.9202 117.27V117.28Z" fill="white"/>
<path d="M103.84 122.36C102.98 122.65 101.76 122.81 100.43 122.81C100.41 122.49 100.41 122.19 100.43 121.91C100.45 121.24 100.59 120.71 100.7 120.42L100.65 120.4C100.43 120.78 100.27 120.99 100.01 121.26C99.1001 122.25 97.8001 122.94 96.9501 122.94C95.8801 122.94 95.5601 121.84 95.5601 120.76C95.5601 118.38 97.5601 117.69 100.46 117.7V117.27C100.46 116.15 100.03 115.77 99.0201 115.77C98.5901 115.77 98.0801 115.87 97.7101 115.99C97.6001 116.47 97.4901 116.92 97.3101 117.3L96.2201 117.41C96.1101 116.75 96.0601 116.02 96.0401 115.17C96.9501 114.75 98.2701 114.45 99.6101 114.45C101.56 114.45 102.72 115.01 102.72 116.91C102.72 118.64 102.59 120.66 102.67 121.33C103.07 121.46 103.41 121.52 103.84 121.57V122.36ZM100.44 118.85C98.5701 118.71 97.9101 119.12 97.9101 120.27C97.9101 120.75 97.9701 121.33 98.1701 121.33C98.5901 121.33 99.8001 120.39 100.44 119.22V118.85Z" fill="white"/>
<path d="M66.8999 84.81C75.1799 84.81 81.8999 78.09 81.8999 69.81C81.8999 61.53 75.1799 54.81 66.8999 54.81C58.6199 54.81 51.8999 61.53 51.8999 69.81C51.8999 78.09 58.6199 84.81 66.8999 84.81Z" fill="#236092"/>
<path d="M60.8498 69.14C60.8498 71.52 61.5398 73.32 63.6998 73.32C64.7398 73.32 65.6498 72.95 66.0398 72.79L66.4098 73.83C65.6098 74.34 64.3598 74.77 63.1898 74.77C59.7198 74.77 58.3398 72.96 58.3398 69.42C58.3398 65.67 60.0198 63.21 63.6698 63.21C64.3698 63.21 65.5898 63.34 66.2598 63.51C66.2598 64.36 66.2098 65.72 66.0998 66.6H65.1098C64.8498 66.15 64.6498 65.51 64.5298 64.93C64.2298 64.75 63.7498 64.66 63.3298 64.66C61.3098 64.66 60.8498 66.15 60.8498 69.13V69.14Z" fill="white"/>
<path d="M75.7702 74.22C74.9102 74.51 73.6902 74.67 72.3602 74.67C72.3402 74.35 72.3402 74.05 72.3602 73.77C72.3802 73.1 72.5202 72.57 72.6302 72.28L72.5802 72.26C72.3602 72.64 72.2002 72.85 71.9402 73.12C71.0302 74.11 69.7302 74.8 68.8802 74.8C67.8102 74.8 67.4902 73.7 67.4902 72.62C67.4902 70.24 69.4902 69.55 72.3902 69.56V69.13C72.3902 68.01 71.9602 67.63 70.9502 67.63C70.5202 67.63 70.0102 67.73 69.6402 67.85C69.5302 68.33 69.4202 68.78 69.2402 69.16L68.1502 69.27C68.0402 68.61 67.9902 67.88 67.9702 67.03C68.8802 66.61 70.2002 66.31 71.5402 66.31C73.4902 66.31 74.6502 66.87 74.6502 68.77C74.6502 70.5 74.5202 72.52 74.6002 73.19C75.0002 73.32 75.3402 73.38 75.7702 73.43V74.22ZM72.3702 70.71C70.5002 70.57 69.8402 70.98 69.8402 72.13C69.8402 72.61 69.9002 73.19 70.1002 73.19C70.5202 73.19 71.7302 72.25 72.3702 71.08V70.71Z" fill="white"/>
<path d="M34.1099 66.31C42.3899 66.31 49.1099 59.59 49.1099 51.31C49.1099 43.03 42.3899 36.31 34.1099 36.31C25.8299 36.31 19.1099 43.03 19.1099 51.31C19.1099 59.59 25.8299 66.31 34.1099 66.31Z" fill="#236092"/>
<path d="M28.0598 50.64C28.0598 53.02 28.7498 54.82 30.9098 54.82C31.9498 54.82 32.8598 54.45 33.2498 54.29L33.6198 55.33C32.8198 55.84 31.5698 56.27 30.3998 56.27C26.9298 56.27 25.5498 54.46 25.5498 50.92C25.5498 47.17 27.2298 44.71 30.8798 44.71C31.5798 44.71 32.7998 44.84 33.4698 45.01C33.4698 45.86 33.4198 47.22 33.3098 48.1H32.3198C32.0598 47.65 31.8598 47.01 31.7398 46.43C31.4398 46.25 30.9598 46.16 30.5398 46.16C28.5198 46.16 28.0598 47.65 28.0598 50.63V50.64Z" fill="white"/>
<path d="M42.9802 55.72C42.1202 56.01 40.9002 56.17 39.5702 56.17C39.5502 55.85 39.5502 55.55 39.5702 55.27C39.5902 54.6 39.7302 54.07 39.8402 53.78L39.7902 53.76C39.5702 54.14 39.4102 54.35 39.1502 54.62C38.2402 55.61 36.9402 56.3 36.0902 56.3C35.0202 56.3 34.7002 55.2 34.7002 54.12C34.7002 51.74 36.7002 51.05 39.6002 51.06V50.63C39.6002 49.51 39.1702 49.13 38.1602 49.13C37.7302 49.13 37.2202 49.23 36.8502 49.35C36.7402 49.83 36.6302 50.28 36.4502 50.66L35.3602 50.77C35.2502 50.11 35.2002 49.38 35.1802 48.53C36.0902 48.11 37.4102 47.81 38.7502 47.81C40.7002 47.81 41.8602 48.37 41.8602 50.27C41.8602 52 41.7302 54.02 41.8102 54.69C42.2102 54.82 42.5502 54.88 42.9802 54.93V55.72ZM39.5802 52.21C37.7102 52.07 37.0502 52.48 37.0502 53.63C37.0502 54.11 37.1102 54.69 37.3102 54.69C37.7302 54.69 38.9402 53.75 39.5802 52.58V52.21Z" fill="white"/>
<path d="M76.79 43.54C85.07 43.54 91.79 36.82 91.79 28.54C91.79 20.26 85.07 13.54 76.79 13.54C68.51 13.54 61.79 20.26 61.79 28.54C61.79 36.82 68.51 43.54 76.79 43.54Z" fill="#236092"/>
<path d="M70.74 27.87C70.74 30.25 71.43 32.05 73.59 32.05C74.63 32.05 75.54 31.68 75.93 31.52L76.3 32.56C75.5 33.07 74.25 33.5 73.08 33.5C69.61 33.5 68.23 31.69 68.23 28.15C68.23 24.4 69.91 21.94 73.56 21.94C74.26 21.94 75.48 22.07 76.15 22.24C76.15 23.09 76.1 24.45 75.99 25.33H75C74.74 24.88 74.54 24.24 74.42 23.66C74.12 23.48 73.64 23.39 73.22 23.39C71.2 23.39 70.74 24.88 70.74 27.86V27.87Z" fill="white"/>
<path d="M85.6599 32.95C84.7999 33.24 83.5799 33.4 82.2499 33.4C82.2299 33.08 82.2299 32.78 82.2499 32.5C82.2699 31.83 82.4099 31.3 82.5199 31.01L82.4699 30.99C82.2499 31.37 82.0899 31.58 81.8299 31.85C80.9199 32.84 79.6199 33.53 78.7699 33.53C77.6999 33.53 77.3799 32.43 77.3799 31.35C77.3799 28.97 79.3799 28.28 82.2799 28.29V27.86C82.2799 26.74 81.8499 26.36 80.8399 26.36C80.4099 26.36 79.8999 26.46 79.5299 26.58C79.4199 27.06 79.3099 27.51 79.1299 27.89L78.0399 28C77.9299 27.34 77.8799 26.61 77.8599 25.76C78.7699 25.34 80.0899 25.04 81.4299 25.04C83.3799 25.04 84.5399 25.6 84.5399 27.5C84.5399 29.23 84.4099 31.25 84.4899 31.92C84.8899 32.05 85.2299 32.11 85.6599 32.16V32.95ZM82.2599 29.44C80.3899 29.3 79.7299 29.71 79.7299 30.86C79.7299 31.34 79.7899 31.92 79.9899 31.92C80.4099 31.92 81.6199 30.98 82.2599 29.81V29.44Z" fill="white"/>
</g>
<defs>
<clipPath id="clip0_282_2615">
<rect width="150.97" height="187.29" fill="white"/>
</clipPath>
</defs>
</svg>
