<svg width="167" height="167" viewBox="0 0 167 167" fill="none" xmlns="http://www.w3.org/2000/svg">
<g clip-path="url(#clip0_282_2618)">
<path d="M83.14 166.56C37.3 166.56 0 129.26 0 83.42C0 37.58 37.3 0.280029 83.14 0.280029C90.03 0.280029 96.88 1.13003 103.51 2.79003C106.19 3.46003 107.81 6.18003 107.14 8.86003C106.47 11.54 103.75 13.16 101.07 12.49C95.25 11.02 89.22 10.28 83.15 10.28C42.81 10.28 10 43.09 10 83.42C10 123.75 42.81 156.56 83.14 156.56C123.47 156.56 156.28 123.75 156.28 83.42C156.28 77.51 155.57 71.64 154.18 65.95C153.52 63.27 155.17 60.56 157.85 59.9C160.53 59.24 163.24 60.88 163.9 63.57C165.48 70.03 166.28 76.71 166.28 83.42C166.28 129.26 128.98 166.56 83.14 166.56Z" fill="#236092"/>
<path d="M20.1401 51.5601C28.4201 51.5601 35.1401 44.8401 35.1401 36.5601C35.1401 28.2801 28.4201 21.5601 20.1401 21.5601C11.8601 21.5601 5.14014 28.2801 5.14014 36.5601C5.14014 44.8401 11.8601 51.5601 20.1401 51.5601Z" fill="#236092"/>
<path d="M14.0901 35.89C14.0901 38.27 14.7801 40.07 16.9401 40.07C17.9801 40.07 18.8901 39.7 19.2801 39.54L19.6501 40.58C18.8501 41.09 17.6001 41.52 16.4301 41.52C12.9601 41.52 11.5801 39.71 11.5801 36.17C11.5801 32.42 13.2601 29.96 16.9101 29.96C17.6101 29.96 18.8301 30.09 19.5001 30.26C19.5001 31.11 19.4501 32.47 19.3401 33.35H18.3501C18.0901 32.9 17.8901 32.26 17.7701 31.68C17.4701 31.5 16.9901 31.41 16.5701 31.41C14.5501 31.41 14.0901 32.9 14.0901 35.88V35.89Z" fill="white"/>
<path d="M29.01 40.9701C28.15 41.2601 26.93 41.4201 25.6 41.4201C25.58 41.1001 25.58 40.8001 25.6 40.5201C25.62 39.8501 25.76 39.3201 25.87 39.0301L25.82 39.0101C25.6 39.3901 25.44 39.6001 25.18 39.8701C24.27 40.8601 22.97 41.5501 22.12 41.5501C21.05 41.5501 20.73 40.4501 20.73 39.3701C20.73 36.9901 22.73 36.3001 25.63 36.3101V35.8801C25.63 34.7601 25.2 34.3801 24.19 34.3801C23.76 34.3801 23.25 34.4801 22.88 34.6001C22.77 35.0801 22.66 35.5301 22.48 35.9101L21.39 36.0201C21.28 35.3601 21.23 34.6301 21.21 33.7801C22.12 33.3601 23.44 33.0601 24.78 33.0601C26.73 33.0601 27.89 33.6201 27.89 35.5201C27.89 37.2501 27.76 39.2701 27.84 39.9401C28.24 40.0701 28.58 40.1301 29.01 40.1801V40.9701ZM25.62 37.4601C23.75 37.3201 23.09 37.7301 23.09 38.8801C23.09 39.3601 23.15 39.9401 23.35 39.9401C23.77 39.9401 24.98 39.0001 25.62 37.8301V37.4601Z" fill="white"/>
<path d="M122.14 112.56C130.43 112.56 137.14 105.85 137.14 97.5601C137.14 89.2701 130.43 82.5601 122.14 82.5601C113.85 82.5601 107.14 89.2801 107.14 97.5601C107.14 105.84 113.86 112.56 122.14 112.56Z" fill="#236092"/>
<path d="M116.09 96.89C116.09 99.27 116.78 101.07 118.94 101.07C119.98 101.07 120.89 100.7 121.28 100.54L121.65 101.58C120.85 102.09 119.6 102.52 118.43 102.52C114.96 102.52 113.58 100.71 113.58 97.17C113.58 93.42 115.26 90.96 118.91 90.96C119.61 90.96 120.83 91.09 121.5 91.26C121.5 92.11 121.45 93.47 121.34 94.35H120.35C120.09 93.9 119.89 93.26 119.77 92.68C119.47 92.5 118.99 92.41 118.57 92.41C116.55 92.41 116.09 93.9 116.09 96.88V96.89Z" fill="white"/>
<path d="M131.01 101.97C130.15 102.26 128.93 102.42 127.6 102.42C127.58 102.1 127.58 101.8 127.6 101.52C127.62 100.85 127.76 100.32 127.87 100.03L127.82 100.01C127.6 100.39 127.44 100.6 127.18 100.87C126.27 101.86 124.97 102.55 124.12 102.55C123.05 102.55 122.73 101.45 122.73 100.37C122.73 97.9901 124.73 97.3001 127.63 97.3101V96.8801C127.63 95.7601 127.2 95.3801 126.19 95.3801C125.76 95.3801 125.25 95.4801 124.88 95.6001C124.77 96.0801 124.66 96.5301 124.48 96.9101L123.39 97.0201C123.28 96.3601 123.23 95.6301 123.21 94.7801C124.12 94.3601 125.44 94.0601 126.78 94.0601C128.73 94.0601 129.89 94.6201 129.89 96.5201C129.89 98.2501 129.76 100.27 129.84 100.94C130.24 101.07 130.58 101.13 131.01 101.18V101.97ZM127.62 98.4601C125.75 98.3201 125.09 98.7301 125.09 99.8801C125.09 100.36 125.15 100.94 125.35 100.94C125.77 100.94 126.98 100 127.62 98.8301V98.4601Z" fill="white"/>
<path d="M36.1401 161.56C44.4201 161.56 51.1401 154.84 51.1401 146.56C51.1401 138.28 44.4201 131.56 36.1401 131.56C27.8601 131.56 21.1401 138.28 21.1401 146.56C21.1401 154.84 27.8601 161.56 36.1401 161.56Z" fill="#236092"/>
<path d="M30.0901 145.89C30.0901 148.27 30.7801 150.07 32.9401 150.07C33.9801 150.07 34.8901 149.7 35.2801 149.54L35.6501 150.58C34.8501 151.09 33.6001 151.52 32.4301 151.52C28.9601 151.52 27.5801 149.71 27.5801 146.17C27.5801 142.42 29.2601 139.96 32.9101 139.96C33.6101 139.96 34.8301 140.09 35.5001 140.26C35.5001 141.11 35.4501 142.47 35.3401 143.35H34.3501C34.0901 142.9 33.8901 142.26 33.7701 141.68C33.4701 141.5 32.9901 141.41 32.5701 141.41C30.5501 141.41 30.0901 142.9 30.0901 145.88V145.89Z" fill="white"/>
<path d="M45.01 150.97C44.15 151.26 42.93 151.42 41.6 151.42C41.58 151.1 41.58 150.8 41.6 150.52C41.62 149.85 41.76 149.32 41.87 149.03L41.82 149.01C41.6 149.39 41.44 149.6 41.18 149.87C40.27 150.86 38.97 151.55 38.12 151.55C37.05 151.55 36.73 150.45 36.73 149.37C36.73 146.99 38.73 146.3 41.63 146.31V145.88C41.63 144.76 41.2 144.38 40.19 144.38C39.76 144.38 39.25 144.48 38.88 144.6C38.77 145.08 38.66 145.53 38.48 145.91L37.39 146.02C37.28 145.36 37.23 144.63 37.21 143.78C38.12 143.36 39.44 143.06 40.78 143.06C42.73 143.06 43.89 143.62 43.89 145.52C43.89 147.25 43.76 149.27 43.84 149.94C44.24 150.07 44.58 150.13 45.01 150.18V150.97ZM41.62 147.46C39.75 147.32 39.09 147.73 39.09 148.88C39.09 149.36 39.15 149.94 39.35 149.94C39.77 149.94 40.98 149 41.62 147.83V147.46Z" fill="white"/>
<path opacity="0.25" d="M146.14 33.5601C154.42 33.5601 161.14 26.8401 161.14 18.5601C161.14 10.2801 154.42 3.56006 146.14 3.56006C137.86 3.56006 131.14 10.2801 131.14 18.5601C131.14 26.8401 137.86 33.5601 146.14 33.5601Z" fill="#D62242"/>
<path d="M140.09 17.89C140.09 20.27 140.78 22.07 142.94 22.07C143.98 22.07 144.89 21.7 145.28 21.54L145.65 22.58C144.85 23.09 143.6 23.52 142.43 23.52C138.96 23.52 137.58 21.71 137.58 18.17C137.58 14.42 139.26 11.96 142.91 11.96C143.61 11.96 144.83 12.09 145.5 12.26C145.5 13.11 145.45 14.47 145.34 15.35H144.35C144.09 14.9 143.89 14.26 143.77 13.68C143.47 13.5 142.99 13.41 142.57 13.41C140.55 13.41 140.09 14.9 140.09 17.88V17.89Z" fill="white"/>
<path d="M155.01 22.9701C154.15 23.2601 152.93 23.4201 151.6 23.4201C151.58 23.1001 151.58 22.8001 151.6 22.5201C151.62 21.8501 151.76 21.3201 151.87 21.0301L151.82 21.0101C151.6 21.3901 151.44 21.6001 151.18 21.8701C150.27 22.8601 148.97 23.5501 148.12 23.5501C147.05 23.5501 146.73 22.4501 146.73 21.3701C146.73 18.9901 148.73 18.3001 151.63 18.3101V17.8801C151.63 16.7601 151.2 16.3801 150.19 16.3801C149.76 16.3801 149.25 16.4801 148.88 16.6001C148.77 17.0801 148.66 17.5301 148.48 17.9101L147.39 18.0201C147.28 17.3601 147.23 16.6301 147.21 15.7801C148.12 15.3601 149.44 15.0601 150.78 15.0601C152.73 15.0601 153.89 15.6201 153.89 17.5201C153.89 19.2501 153.76 21.2701 153.84 21.9401C154.24 22.0701 154.58 22.1301 155.01 22.1801V22.9701ZM151.62 19.4601C149.75 19.3201 149.09 19.7301 149.09 20.8801C149.09 21.3601 149.15 21.9401 149.35 21.9401C149.77 21.9401 150.98 21.0001 151.62 19.8301V19.4601Z" fill="white"/>
<path d="M83.1899 131.61C78.0799 131.61 72.9499 130.79 67.9699 129.13C55.7599 125.08 45.8599 116.51 40.0899 105.01C28.1799 81.27 37.8099 52.27 61.5499 40.36C85.2899 28.46 114.29 38.08 126.2 61.83C127.99 65.4 129.33 69.16 130.19 73.03C130.79 75.73 129.09 78.4 126.39 78.99C123.69 79.58 121.02 77.89 120.43 75.19C119.75 72.13 118.69 69.14 117.27 66.31C107.84 47.5 84.8499 39.87 66.0399 49.3C56.9299 53.87 50.1399 61.72 46.9299 71.39C43.7199 81.07 44.4699 91.41 49.0399 100.53C53.6099 109.64 61.4599 116.43 71.1299 119.64C80.8099 122.85 91.1499 122.11 100.27 117.53C103.03 116.15 105.6 114.44 107.93 112.47C110.03 110.68 113.19 110.93 114.98 113.04C116.77 115.15 116.52 118.3 114.41 120.09C111.47 122.59 108.22 124.74 104.75 126.48C97.9499 129.89 90.5999 131.61 83.2099 131.61H83.1899Z" fill="#236092"/>
</g>
<defs>
<clipPath id="clip0_282_2618">
<rect width="166.28" height="166.28" fill="white" transform="translate(0 0.280029)"/>
</clipPath>
</defs>
</svg>
