<svg width="265" height="48" viewBox="0 0 265 48" fill="none" xmlns="http://www.w3.org/2000/svg">
<path fill-rule="evenodd" clip-rule="evenodd" d="M13.8513 48L0 24.0054L13.8513 0H41.5648L55.4161 24.0054L41.5648 48H13.8513Z" fill="#9C182F"/>
<path d="M27.2392 35.0973C26.0427 35.3775 24.8139 35.5392 23.5958 35.5392C16.6324 35.5392 12.1052 29.6106 12.1052 22.9598C12.1052 16.309 16.4492 11.8357 22.6904 11.8357C25.6762 11.8357 28.5758 12.8273 31.0551 14.4119V9.21629C28.3818 8.58032 25.5792 8.08447 22.8197 8.08447C13.5496 8.08447 6.94189 14.2718 6.94189 23.6282C6.94189 32.9845 13.5496 39.2796 24.221 39.2796C26.0751 39.2796 27.9291 39.0533 29.6646 38.4712C28.5543 37.5657 27.7027 36.4123 27.2284 35.0865L27.2392 35.0973Z" fill="white"/>
<path d="M45.8442 30.8395V24.0485C45.8442 18.5727 42.093 17.1714 37.1992 17.1714L34.7846 17.3977L31.7557 17.678L31.7341 17.8074V21.7202C33.5666 20.8687 35.2589 20.1572 37.3717 20.1572C39.0424 20.1572 41.7157 20.8794 41.7157 23.0569C41.7157 27.983 28.1877 24.1024 28.1877 32.5103C28.1877 36.2614 31.3568 39.1611 35.9272 39.1611C38.4065 39.1611 40.9396 37.7166 42.2978 36.8004C43.311 38.5035 45.4992 39.0317 47.6874 39.1611L49.6816 36.1752C45.9304 35.7656 45.8334 34.4074 45.8334 30.8395H45.8442ZM37.2747 36.1752C34.8817 36.1752 32.7689 35.2697 32.7689 32.4671C32.7689 29.6645 35.2158 29.2118 37.3824 28.716C38.8808 28.3495 40.4114 27.9938 41.7265 27.3147V34.4613C41.7265 34.526 41.7265 34.5799 41.7265 34.6446C40.8534 35.2374 39.1502 36.1752 37.2639 36.1752H37.2747Z" fill="white"/>
<path d="M71.9644 22.2022L76.4459 9.3634H83.5163L77.8236 23.3528L84.4247 39.1439H77.2332L71.9493 25.5784V39.1439H65V9.3634H71.9644V22.2022Z" fill="#236092"/>
<path d="M101.987 9.3634L106.559 39.1439H99.4436L98.6564 31.8615H94.2506L93.4482 39.1439H86.4838L90.9349 9.3634H101.987ZM98.0053 26.8502L96.4913 12.8153L94.8562 26.8502H97.9902H98.0053Z" fill="#236092"/>
<path d="M131.374 9.3634V39.1439H124.41V14.6019H120.791V28.8032C120.791 35.3286 118.323 39.4164 112.873 39.4164C111.329 39.4164 110.329 39.2953 109.254 39.053V32.6185C109.845 32.8608 110.45 32.891 111.404 32.891C113.357 32.891 113.827 31.5436 113.827 28.7881V9.3634H131.359H131.374Z" fill="#236092"/>
<path d="M144.107 20.8547H145.257C152.101 20.8547 154.644 22.4444 154.644 28.4096V31.4679C154.644 37.9932 151.662 39.1439 144.107 39.1439H137.142V9.3634H144.107V20.8547ZM144.107 33.8903H145.651C147.195 33.8903 147.68 33.4966 147.68 31.7858V28.2128C147.68 26.5019 147.195 26.1083 145.651 26.1083H144.107V33.9054V33.8903Z" fill="#236092"/>
<path d="M166.257 33.8903H169.875V9.3634H176.84V33.8903H178.702V44.2461H173.327V39.1287H159.307V9.3634H166.272V33.8903H166.257Z" fill="#236092"/>
<path d="M195.871 9.3634V14.617H189.709V21.0969H195.477V26.1083H189.709V33.9054H196.461V39.159H182.744V9.3634H195.871Z" fill="#236092"/>
<path d="M208.21 20.8547H211.783V9.3634H218.747V39.1439H211.783V26.1083H208.21V39.1439H201.245V9.3634H208.21V20.8547Z" fill="#236092"/>
<path d="M242.123 17.3422V31.1347C242.123 38.2506 240.579 39.4769 233.145 39.4769C225.712 39.4769 224.122 38.0386 224.122 31.1347V17.3422C224.122 10.62 225.757 9 233.145 9C240.534 9 242.123 10.6351 242.123 17.3422ZM231.268 16.3883V32.134C231.268 33.7994 231.662 34.2385 233.13 34.2385C234.599 34.2385 234.962 33.7994 234.962 32.134V16.3883C234.962 14.7229 234.599 14.2385 233.13 14.2385C231.662 14.2385 231.268 14.6775 231.268 16.3883Z" fill="#236092"/>
<path d="M254.462 20.8547H258.036V9.3634H265V39.1439H258.036V26.1083H254.462V39.1439H247.498V9.3634H254.462V20.8547Z" fill="#236092"/>
</svg>
