<svg width="383" height="57" viewBox="0 0 383 57" fill="none" xmlns="http://www.w3.org/2000/svg">
<path d="M6.19627 22.509C2.81157 22.509 0 21.1681 0 19.1027C0 17.5239 0.41092 16.648 1.16788 16.648C1.82752 16.648 1.60043 18.0429 2.63855 19.6001C3.24412 20.4976 4.35794 21.2654 6.18546 21.2654C8.01298 21.2654 10.1433 20.1949 10.1433 16.702C10.1433 14.1392 8.53203 12.6685 6.07732 12.6685C4.55258 12.6685 4.24979 12.9929 3.42795 12.9929C3.12517 12.9929 2.96296 12.7766 2.96296 12.0413C2.96296 11.36 3.42795 11.3276 3.94701 11.3276C4.6499 11.3276 5.14734 11.36 5.77453 11.36C8.26169 11.36 9.64585 9.6731 9.64585 7.18594C9.64585 4.69878 8.64017 3.44439 6.23952 3.44439C4.03352 3.44439 2.96296 5.05564 2.63855 5.84504C2.31414 6.68851 2.17356 7.86721 1.4166 7.86721C0.756959 7.86721 0.735334 6.45061 0.735334 5.41249C0.735334 3.80124 1.47067 3.44439 2.13031 3.20649C3.68748 2.63336 5.10408 2.25488 6.96404 2.25488C10.2947 2.25488 12.479 3.40114 12.479 6.69933C12.479 9.09998 10.6732 11.0356 8.32657 11.7493V11.8899C11.6572 12.3874 13.0738 14.4852 13.0738 16.4749C13.0738 20.2165 10.1541 22.5306 6.19627 22.5306" fill="#5592CE"/>
<path d="M31.3057 12.7981C30.4839 12.7981 30.9489 10.0731 29.0997 10.0731H27.5966V19.7297C27.5966 21.0382 27.9535 21.0382 28.3103 21.0382C28.5807 21.0382 28.7213 21.2545 28.7213 21.395C28.7213 21.9357 28.2563 22.0763 27.7156 22.0763H25.2284C24.8499 22.0763 24.2228 21.9357 24.2228 21.395C24.2228 21.2545 24.3093 21.0382 24.5796 21.0382C24.9581 21.0382 25.3474 21.0382 25.3474 19.7297V10.0731H23.8443C21.9843 10.0731 22.4493 12.7981 21.6383 12.7981C21.1408 12.7981 20.9786 11.5437 20.9786 10.8841C20.9786 9.71621 20.9246 8.62402 21.6383 8.62402C21.9411 8.62402 22.3195 8.81867 23.9524 8.81867H29.0024C30.6137 8.81867 31.0246 8.62402 31.3274 8.62402C32.0411 8.62402 31.9762 9.71621 31.9762 10.8841C31.9762 11.5437 31.814 12.7981 31.3274 12.7981" fill="#5592CE"/>
<path d="M45.2014 9.82442C44.8229 9.82442 44.5418 9.87849 44.1417 11.1653L40.8435 21.5033C39.4485 25.8936 38.0103 29.0945 36.1719 29.0945C35.2744 29.0945 34.8851 28.6619 34.8851 27.5698C34.8851 26.4776 35.3177 26.1207 35.9449 26.1207C36.2693 26.1207 36.518 26.2072 37.0587 26.2072C37.9887 26.2072 38.5834 24.9204 38.5834 23.8282C38.5834 23.0604 38.2806 22.3035 37.9778 21.5033L34.1822 11.7817C33.5226 10.0948 33.3388 9.8136 32.8954 9.8136C32.625 9.8136 32.571 9.6514 32.571 9.45676C32.571 8.9377 33.1441 8.79712 33.5767 8.79712H36.1395C36.6369 8.79712 37.1236 8.9377 37.1236 9.45676C37.1236 9.6514 37.0695 9.8136 36.7451 9.8136C36.5829 9.8136 36.2585 9.81361 36.2585 10.3867C36.2585 10.6895 36.3125 11.0464 36.6369 11.8898L39.9351 20.5949L42.498 11.2086C42.6061 10.8517 42.6061 10.6355 42.6061 10.3867C42.6061 10.0083 42.3898 9.8136 42.0546 9.8136C41.7194 9.8136 41.6761 9.6514 41.6761 9.45676C41.6761 8.9377 42.1628 8.79712 42.6602 8.79712H44.4877C44.9527 8.79712 45.4934 8.82956 45.4934 9.37025C45.4934 9.61896 45.3852 9.8028 45.169 9.8028" fill="#5592CE"/>
<path d="M53.5063 9.84591C51.1597 9.84591 50.0351 11.7816 50.0351 13.7713V17.5345C50.0351 20.0973 51.6139 21.1679 53.2792 21.1679C55.734 21.1679 57.0208 18.9619 57.0208 14.95C57.0208 11.7816 55.7664 9.84591 53.4955 9.84591M53.4955 22.4223C52.1005 22.4223 50.9543 22.0438 50.0243 21.0057V26.9857C50.0243 28.3266 50.4028 28.3266 50.7921 28.3266C51.0949 28.3266 51.1489 28.5212 51.1489 28.6834C51.1489 29.2241 50.6839 29.3647 50.1649 29.3647H47.6561C47.2235 29.3647 46.6504 29.2241 46.6504 28.6834C46.6504 28.5212 46.6829 28.3266 46.9748 28.3266C47.3858 28.3266 47.7642 28.2509 47.7642 26.964V11.2409C47.7642 10.365 47.5696 9.82428 46.9748 9.82428C46.7586 9.82428 46.672 9.66207 46.672 9.46742C46.672 9.00243 47.2452 8.80779 47.6561 8.80779H49.3214C50.0351 8.80779 50.0351 9.52149 50.0351 10.5812C51.1273 8.72128 52.9873 8.37524 54.2633 8.37524C57.2154 8.37524 59.4755 10.3974 59.4755 15.2528C59.4755 19.2106 57.2911 22.4331 53.4955 22.4331" fill="#5592CE"/>
<path d="M67.867 9.52165C64.5688 9.52165 64.1254 13.2632 64.1254 14.9285C64.1254 18.6376 65.3582 21.2545 67.867 21.2545C70.3758 21.2545 71.522 19.373 71.522 15.8261C71.522 12.2792 70.4298 9.52165 67.867 9.52165ZM67.867 22.4332C63.6064 22.4332 61.5301 19.373 61.5301 14.4095C61.5301 12.5279 61.6058 9.82443 62.5682 7.53192C64.093 3.82281 68.2779 2.62249 69.9865 1.85471C72.5277 0.762525 72.4195 0.492188 72.9927 0.492188C73.2089 0.492188 73.3712 0.60032 73.3712 1.28159C73.3712 2.10343 72.9386 2.78469 71.9546 3.44433C71.1868 3.93095 70.592 4.21211 68.9483 4.8393C67.4993 5.41243 65.369 6.1802 63.9848 7.92122C62.9251 9.28375 62.7521 10.4841 62.5682 12.2359L62.7629 12.2683C63.9957 9.26212 65.9854 8.36458 68.2995 8.36458C71.522 8.36458 73.9984 10.4084 73.9984 15.3503C73.9984 19.6649 70.8624 22.4441 67.8562 22.4441" fill="#5592CE"/>
<path d="M82.2492 9.55425C79.8486 9.55425 78.5401 11.4142 78.5401 14.9287C78.5401 18.6378 79.9026 21.2547 82.3574 21.2547C84.8121 21.2547 86.0448 19.3731 86.0448 15.8262C86.0448 12.2793 84.6499 9.54344 82.2492 9.54344M82.3574 22.4226C78.3671 22.4226 76.107 19.4164 76.107 15.3288C76.107 10.8195 79.1132 8.36475 82.2492 8.36475C86.2071 8.36475 88.4671 11.3385 88.4671 15.4045C88.4671 19.7732 85.4609 22.4226 82.3574 22.4226Z" fill="#5592CE"/>
<path d="M100.405 12.7981C99.5836 12.7981 100.049 10.0731 98.1994 10.0731H96.6963V19.7297C96.6963 21.0382 97.0532 21.0382 97.41 21.0382C97.6803 21.0382 97.8209 21.2545 97.8209 21.395C97.8209 21.9357 97.3559 22.0763 96.8152 22.0763H94.3281C93.9496 22.0763 93.3224 21.9357 93.3224 21.395C93.3224 21.2545 93.4089 21.0382 93.6793 21.0382C94.0578 21.0382 94.447 21.0382 94.447 19.7297V10.0731H92.9439C91.084 10.0731 91.549 12.7981 90.7379 12.7981C90.2405 12.7981 90.0783 11.5437 90.0783 10.8841C90.0783 9.71621 90.0242 8.62402 90.7379 8.62402C91.0407 8.62402 91.4192 8.81867 93.0521 8.81867H98.1021C99.7133 8.81867 100.124 8.62402 100.427 8.62402C101.141 8.62402 101.087 9.71621 101.087 10.8841C101.087 11.5437 100.924 12.7981 100.427 12.7981" fill="#5592CE"/>
<path d="M108.754 9.55425C106.353 9.55425 105.045 11.4142 105.045 14.9287C105.045 18.6378 106.407 21.2547 108.862 21.2547C111.317 21.2547 112.549 19.3731 112.549 15.8262C112.549 12.2793 111.154 9.54344 108.754 9.54344M108.862 22.4226C104.872 22.4226 102.611 19.4164 102.611 15.3288C102.611 10.8195 105.618 8.36475 108.754 8.36475C112.711 8.36475 114.972 11.3385 114.972 15.4045C114.972 19.7732 111.965 22.4226 108.862 22.4226Z" fill="#5592CE"/>
<path d="M129.365 9.55425C126.964 9.55425 125.677 11.4142 125.677 14.9287C125.677 18.6378 127.018 21.2547 129.44 21.2547C131.863 21.2547 133.095 19.3731 133.095 15.8262C133.095 12.2793 131.754 9.54344 129.354 9.54344M129.44 22.4226C125.645 22.4226 123.406 19.6651 123.222 15.8695H120.443V19.7192C120.443 21.0276 120.8 21.0276 121.179 21.0276C121.481 21.0276 121.557 21.2439 121.557 21.3845C121.557 21.936 121.092 22.0657 120.551 22.0657H118.064C117.653 22.0657 117.059 21.9252 117.059 21.3845C117.059 21.2439 117.145 21.0276 117.415 21.0276C117.794 21.0276 118.183 21.0276 118.183 19.7192V11.1763C118.183 9.94355 117.805 9.81378 117.415 9.81378C117.145 9.81378 117.059 9.65158 117.059 9.45694C117.059 8.93788 117.664 8.7973 118.043 8.7973H120.53C121.049 8.7973 121.568 8.93788 121.568 9.45694C121.568 9.65158 121.46 9.81378 121.189 9.81378C120.811 9.81378 120.454 9.95436 120.454 11.1763V14.6692H123.266C123.59 10.5491 126.38 8.36475 129.375 8.36475C133.333 8.36475 135.593 11.3385 135.593 15.4045C135.593 19.7732 132.62 22.4226 129.451 22.4226" fill="#5592CE"/>
<path d="M155.869 9.84648C155.545 9.84648 155.134 9.84647 155.134 11.1549V19.7194C155.134 21.0062 155.512 21.0279 155.847 21.0279C156.204 21.0279 156.258 21.2441 156.258 21.3847C156.258 21.9254 155.772 22.066 155.22 22.066H152.787C152.376 22.066 151.749 21.9254 151.749 21.3847C151.749 21.2441 151.836 21.0279 152.128 21.0279C152.452 21.0279 152.895 21.0279 152.895 19.7194V10.5277C152.895 10.0627 152.787 10.0627 152.517 10.0627H147.629C147.413 10.0627 147.305 10.0627 147.305 10.5277V19.7194C147.305 21.0279 147.661 21.0279 148.04 21.0279C148.343 21.0279 148.418 21.2441 148.418 21.3847C148.418 21.9254 147.953 22.066 147.413 22.066H144.926C144.515 22.066 143.92 21.9254 143.92 21.3847C143.92 21.2441 143.996 21.0279 144.277 21.0279C144.655 21.0279 145.045 21.0279 145.045 19.7194V11.1766C145.045 9.95461 144.666 9.81403 144.277 9.81403C144.006 9.81403 143.92 9.67345 143.92 9.38148C143.92 8.86243 144.515 8.80835 144.904 8.80835H155.253C155.804 8.80835 156.291 8.94893 156.291 9.48962C156.291 9.65183 156.237 9.84648 155.88 9.84648" fill="#5592CE"/>
<path d="M165.158 9.84591C162.812 9.84591 161.687 11.7816 161.687 13.7713V17.5345C161.687 20.0973 163.266 21.1679 164.931 21.1679C167.386 21.1679 168.673 18.9619 168.673 14.95C168.673 11.7816 167.418 9.84591 165.147 9.84591M165.147 22.4223C163.752 22.4223 162.606 22.0438 161.676 21.0057V26.9857C161.676 28.3266 162.055 28.3266 162.444 28.3266C162.747 28.3266 162.801 28.5212 162.801 28.6834C162.801 29.2241 162.336 29.3647 161.817 29.3647H159.308C158.875 29.3647 158.302 29.2241 158.302 28.6834C158.302 28.5212 158.335 28.3266 158.627 28.3266C159.038 28.3266 159.416 28.2509 159.416 26.964V11.2409C159.416 10.365 159.221 9.82428 158.627 9.82428C158.41 9.82428 158.324 9.66207 158.324 9.46742C158.324 9.00243 158.897 8.80779 159.308 8.80779H160.973C161.687 8.80779 161.687 9.52149 161.687 10.5812C162.779 8.72128 164.639 8.37524 165.915 8.37524C168.867 8.37524 171.127 10.3974 171.127 15.2528C171.127 19.2106 168.943 22.4331 165.147 22.4331" fill="#5592CE"/>
<path d="M179.216 9.55425C176.815 9.55425 175.507 11.4142 175.507 14.9287C175.507 18.6378 176.869 21.2547 179.324 21.2547C181.779 21.2547 183.012 19.3731 183.012 15.8262C183.012 12.2793 181.617 9.54344 179.216 9.54344M179.324 22.4226C175.334 22.4226 173.074 19.4164 173.074 15.3288C173.074 10.8195 176.08 8.36475 179.216 8.36475C183.174 8.36475 185.434 11.3385 185.434 15.4045C185.434 19.7732 182.428 22.4226 179.324 22.4226Z" fill="#5592CE"/>
<path d="M198.302 22.4331C196.907 22.4331 195.242 22.325 194.042 21.2652C193.577 20.8543 193.469 20.2595 193.469 19.6323C193.469 18.897 193.717 18.2374 194.258 18.2374C195.026 18.2374 194.885 19.3512 195.783 20.3677C196.334 20.9949 197.037 21.2976 198.129 21.2976C199.795 21.2976 200.887 20.4217 200.887 18.3455C200.887 16.518 199.492 15.9989 198.054 15.9989C197.34 15.9989 197.015 16.0746 196.745 16.0746C196.442 16.0746 195.977 16.0746 195.977 15.3609C195.977 14.6472 196.55 14.6796 196.821 14.6796C197.232 14.6796 197.61 14.7337 198.129 14.7337C199.243 14.7337 200.476 13.9984 200.476 12.0303C200.476 10.2893 199.708 9.46742 198.237 9.46742C197.091 9.46742 196.464 9.79184 195.891 10.7002C195.264 11.6842 195.264 12.6142 194.528 12.6142C194.096 12.6142 193.847 11.933 193.847 10.8948C193.847 9.80265 194.398 9.39173 194.993 9.08895C195.945 8.62396 197.534 8.37524 198.573 8.37524C200.725 8.37524 202.909 9.19709 202.909 11.4572C202.909 13.9984 200.725 14.9284 199.773 15.1663V15.2528C202.119 15.6096 203.374 16.7234 203.374 18.5293C203.374 21.449 200.454 22.4331 198.302 22.4331Z" fill="#5592CE"/>
<path d="M213.831 10.5273C213.831 10.1488 213.744 10.0623 213.506 10.0623H210.943C210.208 10.0623 209.797 10.5273 209.797 11.4249V12.5927C209.797 16.0531 208.846 19.4703 207.721 20.8328H213.506C213.755 20.8328 213.831 20.8328 213.831 20.4002V10.5165V10.5273ZM217.075 25.3205C216.469 25.3205 216.415 23.5795 216.015 22.9523C215.637 22.4116 215.247 22.0764 214.242 22.0764H208.24C206.986 22.0764 206.715 22.2927 206.326 22.8117C205.893 23.3848 205.807 25.3205 205.18 25.3205C204.639 25.3205 204.39 23.2983 204.39 22.1521C204.39 21.4167 204.444 20.8436 205.05 20.8436C205.428 20.8436 205.893 20.703 206.337 20.3246C207.678 19.1567 208.521 15.9882 208.521 13.5552C208.521 11.8898 208.445 11.2626 208.272 10.7977C207.97 10.0623 207.321 9.8136 206.856 9.8136C206.531 9.8136 206.477 9.70547 206.477 9.51082C206.477 8.90525 207.083 8.79712 207.569 8.79712H216.22C216.599 8.79712 217.259 8.99176 217.259 9.51082C217.259 9.70547 217.15 9.8136 216.902 9.8136C216.523 9.8136 216.112 9.92174 216.112 11.1761V19.9893C216.112 20.8112 216.275 20.8328 217.183 20.8328C217.843 20.8328 217.918 21.1572 217.918 21.4059V22.0547C217.918 23.0388 217.81 25.2989 217.096 25.2989" fill="#5592CE"/>
<path d="M225.812 9.55425C223.412 9.55425 222.103 11.4142 222.103 14.9287C222.103 18.6378 223.466 21.2547 225.921 21.2547C228.375 21.2547 229.608 19.3731 229.608 15.8262C229.608 12.2793 228.213 9.54344 225.812 9.54344M225.921 22.4226C221.93 22.4226 219.67 19.4164 219.67 15.3288C219.67 10.8195 222.676 8.36475 225.812 8.36475C229.77 8.36475 232.03 11.3385 232.03 15.4045C232.03 19.7732 229.024 22.4226 225.921 22.4226Z" fill="#5592CE"/>
<path d="M240.962 9.84591C238.616 9.84591 237.491 11.7816 237.491 13.7713V17.5345C237.491 20.0973 239.07 21.1679 240.735 21.1679C243.19 21.1679 244.477 18.9619 244.477 14.95C244.477 11.7816 243.222 9.84591 240.952 9.84591M240.952 22.4223C239.557 22.4223 238.41 22.0438 237.48 21.0057V26.9857C237.48 28.3266 237.859 28.3266 238.248 28.3266C238.551 28.3266 238.605 28.5212 238.605 28.6834C238.605 29.2241 238.14 29.3647 237.621 29.3647H235.112C234.68 29.3647 234.106 29.2241 234.106 28.6834C234.106 28.5212 234.128 28.3266 234.431 28.3266C234.842 28.3266 235.22 28.2509 235.22 26.964V11.2409C235.22 10.365 235.026 9.82428 234.431 9.82428C234.215 9.82428 234.128 9.66207 234.128 9.46742C234.128 9.00243 234.701 8.80779 235.112 8.80779H236.777C237.491 8.80779 237.491 9.52149 237.491 10.5812C238.583 8.72128 240.443 8.37524 241.719 8.37524C244.671 8.37524 246.932 10.3974 246.932 15.2528C246.932 19.2106 244.747 22.4331 240.952 22.4331" fill="#5592CE"/>
<path d="M255.02 9.55425C252.62 9.55425 251.311 11.4142 251.311 14.9287C251.311 18.6378 252.674 21.2547 255.128 21.2547C257.583 21.2547 258.816 19.3731 258.816 15.8262C258.816 12.2793 257.421 9.54344 255.02 9.54344M255.128 22.4226C251.138 22.4226 248.878 19.4164 248.878 15.3288C248.878 10.8195 251.884 8.36475 255.02 8.36475C258.978 8.36475 261.238 11.3385 261.238 15.4045C261.238 19.7732 258.232 22.4226 255.128 22.4226Z" fill="#5592CE"/>
<path d="M269.327 15.8044H266.71V19.7839C266.71 20.6273 266.796 20.8436 267.445 20.8436H269.651C270.17 20.8436 272.106 20.649 272.106 18.2267C272.106 17.1669 271.565 15.7936 269.327 15.7936M269.489 10.0623H268.018C267.121 10.0623 266.71 10.0948 266.71 10.8842V14.6473H269.11C270.668 14.6473 271.652 13.8796 271.652 12.1602C271.652 10.6571 270.614 10.0623 269.5 10.0623M269.5 22.0656H264.342C263.931 22.0656 263.336 21.925 263.336 21.3843C263.336 21.2437 263.422 21.0274 263.693 21.0274C264.071 21.0274 264.461 21.0274 264.461 19.719V11.1761C264.461 9.94337 264.082 9.8136 263.693 9.8136C263.422 9.8136 263.336 9.6514 263.336 9.45676C263.336 8.9377 263.942 8.79712 264.32 8.79712H269.803C271.306 8.79712 273.977 9.0999 273.977 11.825C273.977 13.9228 272.117 14.6365 271.306 15.015V15.1015C272.474 15.2637 274.528 16.0856 274.528 18.3781C274.528 21.4924 271.306 22.0656 269.511 22.0656" fill="#5592CE"/>
<path d="M276.269 10.0948L276.183 9.55415C277.275 9.1216 278.281 7.81314 278.281 6.93722C278.281 6.5263 278.118 5.79097 277.567 5.57469C276.777 5.25028 276.204 4.80691 276.258 4.01751C276.28 3.30381 276.723 2.5144 277.891 2.5144C279.059 2.5144 279.935 3.39032 279.935 5.02319C279.935 7.56442 278.162 9.57577 276.248 10.0948" fill="#5592CE"/>
<path d="M290.922 10.9387C290.922 10.279 290.868 10.0627 290.208 10.0627H288.846C287.97 10.0627 286.034 10.279 286.034 12.8203C286.034 15.3615 287.84 15.8265 289.311 15.8265C290.565 15.8265 290.922 15.6859 290.922 15.0911V10.9387ZM293.301 22.0768H290.846C290.435 22.0768 289.84 21.9362 289.84 21.3955C289.84 21.255 289.895 21.0387 290.197 21.0387C290.554 21.0387 290.933 21.0387 290.933 19.7302V16.6699C290.933 16.6699 290.273 16.8321 289.408 16.8862C288.997 17.2647 288.618 17.8919 287.58 19.2869C286.11 21.309 285.374 22.3688 283.839 22.3688C283.32 22.3688 282.498 22.2606 282.498 21.5794C282.498 21.0928 283.266 20.9522 284.736 19.2544L287.115 16.5294C285.234 16.1509 283.677 15.0803 283.677 12.658C283.677 9.27335 286.704 8.80835 288.835 8.80835H293.312C293.852 8.80835 294.317 8.97056 294.317 9.48962C294.317 9.68427 294.231 9.84648 293.939 9.84648C293.582 9.84648 293.204 9.84647 293.204 11.1874V19.7302C293.204 21.0387 293.582 21.0387 293.939 21.0387C294.242 21.0387 294.317 21.255 294.317 21.3955C294.317 21.9362 293.852 22.0768 293.312 22.0768" fill="#5592CE"/>
<path d="M312.571 12.7981C311.749 12.7981 312.214 10.0731 310.365 10.0731H308.862V19.7297C308.862 21.0382 309.219 21.0382 309.576 21.0382C309.846 21.0382 309.986 21.2545 309.986 21.395C309.986 21.9357 309.521 22.0763 308.981 22.0763H306.494C306.115 22.0763 305.488 21.9357 305.488 21.395C305.488 21.2545 305.574 21.0382 305.845 21.0382C306.223 21.0382 306.613 21.0382 306.613 19.7297V10.0731H305.109C303.249 10.0731 303.714 12.7981 302.893 12.7981C302.406 12.7981 302.244 11.5437 302.244 10.8841C302.244 9.71621 302.19 8.62402 302.893 8.62402C303.195 8.62402 303.574 8.81867 305.218 8.81867H310.268C311.879 8.81867 312.29 8.62402 312.593 8.62402C313.306 8.62402 313.252 9.71621 313.252 10.8841C313.252 11.5437 313.09 12.7981 312.593 12.7981" fill="#5592CE"/>
<path d="M320.757 15.8044H318.14V19.7839C318.14 20.6273 318.216 20.8436 318.875 20.8436H321.081C321.6 20.8436 323.536 20.649 323.536 18.2267C323.536 17.1669 322.995 15.7936 320.757 15.7936M320.919 10.0623H319.448C318.551 10.0623 318.14 10.0948 318.14 10.8842V14.6473H320.541C322.098 14.6473 323.082 13.8796 323.082 12.1602C323.082 10.6571 322.044 10.0623 320.93 10.0623M320.93 22.0656H315.772C315.361 22.0656 314.766 21.925 314.766 21.3843C314.766 21.2437 314.853 21.0274 315.123 21.0274C315.501 21.0274 315.891 21.0274 315.891 19.719V11.1761C315.891 9.94337 315.512 9.8136 315.123 9.8136C314.853 9.8136 314.766 9.6514 314.766 9.45676C314.766 8.9377 315.372 8.79712 315.75 8.79712H321.233C322.736 8.79712 325.407 9.0999 325.407 11.825C325.407 13.9228 323.547 14.6365 322.736 15.015V15.1015C323.904 15.2637 325.958 16.0856 325.958 18.3781C325.958 21.4924 322.736 22.0656 320.941 22.0656" fill="#5592CE"/>
<path d="M335.442 14.8423C335.031 15.2532 334.436 15.4154 333.939 15.6101C332.273 16.2697 330.284 16.6482 330.284 18.746C330.284 19.5138 330.532 20.8439 332.09 20.8439C333.841 20.8439 335.009 19.1786 335.442 18.1729V14.8423ZM337.54 22.2929C336.588 22.2929 335.442 22.4335 335.442 20.5195V19.9139C334.49 21.2548 333.344 22.4227 331.051 22.4227C329.473 22.4227 327.937 21.4387 327.937 19.1786C327.937 15.9561 330.997 15.4911 333.506 14.6476C334.436 14.3232 335.442 13.9123 335.442 13.177V11.1872C335.442 10.5817 335.085 9.63007 333.56 9.63007C332.036 9.63007 331.322 10.4519 330.857 11.436C330.587 11.9875 330.338 12.9391 329.711 12.9391C329.083 12.9391 329.029 11.49 329.029 11.0575C329.029 10.1059 329.3 9.53274 329.711 9.28403C330.176 9.06775 330.424 9.01368 331.181 8.81904C332.079 8.60276 333.095 8.49463 333.906 8.49463C335.755 8.49463 337.702 8.92717 337.702 11.3278V19.7301C337.702 20.7358 337.843 21.1467 338.362 21.1467C338.632 21.1467 338.718 21.3089 338.718 21.5035C338.718 22.0226 338.005 22.2929 337.551 22.2929" fill="#5592CE"/>
<path d="M347.618 9.84591C345.272 9.84591 344.147 11.7816 344.147 13.7713V17.5345C344.147 20.0973 345.726 21.1679 347.391 21.1679C349.846 21.1679 351.133 18.9619 351.133 14.95C351.133 11.7816 349.878 9.84591 347.607 9.84591M347.607 22.4223C346.212 22.4223 345.066 22.0438 344.136 21.0057V26.9857C344.136 28.3266 344.515 28.3266 344.904 28.3266C345.207 28.3266 345.261 28.5212 345.261 28.6834C345.261 29.2241 344.796 29.3647 344.277 29.3647H341.768C341.335 29.3647 340.762 29.2241 340.762 28.6834C340.762 28.5212 340.784 28.3266 341.087 28.3266C341.498 28.3266 341.876 28.2509 341.876 26.964V11.2409C341.876 10.365 341.681 9.82428 341.087 9.82428C340.87 9.82428 340.784 9.66207 340.784 9.46742C340.784 9.00243 341.357 8.80779 341.768 8.80779H343.433C344.147 8.80779 344.147 9.52149 344.147 10.5812C345.239 8.72128 347.099 8.37524 348.375 8.37524C351.327 8.37524 353.587 10.3974 353.587 15.2528C353.587 19.2106 351.403 22.4331 347.607 22.4331" fill="#5592CE"/>
<path d="M367.223 22.0768H364.736C364.358 22.0768 363.731 21.9362 363.731 21.3955C363.731 21.255 363.806 21.0387 364.087 21.0387C364.466 21.0387 364.855 21.0387 364.855 19.7302V12.4958L359.092 19.9141C358.983 20.0763 358.897 20.1628 358.897 20.325C358.897 21.0062 359.092 21.0927 359.384 21.0927C359.708 21.0927 359.762 21.2333 359.762 21.3955C359.762 21.9146 359.167 22.0768 358.756 22.0768H356.518C355.977 22.0768 355.512 21.9146 355.512 21.3955C355.512 21.2333 355.599 21.0927 355.869 21.0927C356.28 21.0927 356.637 21.0062 356.637 19.7302V11.1874C356.637 9.95461 356.258 9.82484 355.869 9.82484C355.599 9.82484 355.512 9.66264 355.512 9.46799C355.512 8.94893 356.118 8.80835 356.496 8.80835H358.983C359.502 8.80835 360.022 8.94893 360.022 9.46799C360.022 9.66264 359.913 9.82484 359.643 9.82484C359.265 9.82484 358.908 9.96542 358.908 11.1874V18.4218L364.693 10.8846C364.801 10.7765 364.855 10.7224 364.855 10.5061C364.855 9.82484 364.585 9.82484 364.304 9.82484C364.001 9.82484 363.925 9.66264 363.925 9.46799C363.925 8.94893 364.552 8.80835 364.909 8.80835H367.202C367.743 8.80835 368.24 8.94893 368.24 9.46799C368.24 9.66264 368.132 9.82484 367.862 9.82484C367.483 9.82484 367.126 9.93298 367.126 11.1874V19.7302C367.126 21.0387 367.483 21.0387 367.84 21.0387C368.164 21.0387 368.251 21.255 368.251 21.3955C368.251 21.9362 367.786 22.0768 367.245 22.0768" fill="#5592CE"/>
<path d="M381.584 22.0768H379.129C378.719 22.0768 378.091 21.9362 378.091 21.3955C378.091 21.255 378.178 21.0387 378.47 21.0387C378.794 21.0387 379.238 21.0387 379.238 19.7302V15.5777H373.669V19.7302C373.669 21.0387 374.025 21.0387 374.404 21.0387C374.707 21.0387 374.782 21.255 374.782 21.3955C374.782 21.9362 374.317 22.0768 373.777 22.0768H371.289C370.879 22.0768 370.284 21.9362 370.284 21.3955C370.284 21.255 370.37 21.0387 370.641 21.0387C371.019 21.0387 371.408 21.0387 371.408 19.7302V11.1874C371.408 9.95461 371.03 9.82484 370.641 9.82484C370.37 9.82484 370.284 9.66264 370.284 9.46799C370.284 8.94893 370.889 8.80835 371.268 8.80835H373.755C374.274 8.80835 374.793 8.94893 374.793 9.46799C374.793 9.66264 374.685 9.82484 374.415 9.82484C374.036 9.82484 373.679 9.96542 373.679 11.1874V14.3774H379.248V11.1874C379.248 9.93298 378.816 9.82484 378.481 9.82484C378.178 9.82484 378.102 9.66264 378.102 9.46799C378.102 8.94893 378.729 8.80835 379.108 8.80835H381.563C382.103 8.80835 382.622 8.94893 382.622 9.46799C382.622 9.66264 382.536 9.82484 382.244 9.82484C381.887 9.82484 381.508 9.93298 381.508 11.1874V19.7302C381.508 21.0387 381.887 21.0387 382.222 21.0387C382.579 21.0387 382.633 21.255 382.633 21.3955C382.633 21.9362 382.146 22.0768 381.595 22.0768" fill="#5592CE"/>
<path d="M6.46661 50.819L4.05515 47.9966L6.46661 45.1742L6.70452 45.2823L5.50419 47.975L6.70452 50.7L6.46661 50.8082V50.819ZM4.60665 51.2732L1.22195 47.9966L4.60665 44.5254L4.93106 44.6984L3.03866 47.9858L4.93106 51.1326L4.60665 51.2623V51.2732Z" fill="#848484"/>
<path d="M12.4682 41.6273L10.6839 47.0017H13.9605L12.4682 41.6273ZM16.9343 51.9868H14.8905C14.5336 51.9868 14.22 51.9219 14.22 51.6191C14.22 51.511 14.2633 51.4461 14.4796 51.4461C14.7823 51.4461 15.0527 51.3164 15.0527 51.0136C15.0527 50.7865 14.9878 50.6243 14.9554 50.5162L14.166 47.7587H10.446L9.5485 50.5162C9.50524 50.6784 9.45118 50.8514 9.45118 51.0136C9.45118 51.3164 9.5485 51.4786 9.80803 51.4786C9.98105 51.4786 10.1 51.511 10.1 51.6732C10.1 51.9111 9.89454 51.9976 9.5485 51.9976H8.19678C7.93725 51.9976 7.59122 51.9868 7.59122 51.6732C7.59122 51.5435 7.6561 51.4786 7.8183 51.4786C8.04539 51.4786 8.34818 51.2731 8.60771 50.5486L11.6139 41.9409C11.7545 41.5083 11.7221 41.2488 11.4517 41.1731C11.2895 41.1082 11.1922 41.0109 11.1922 40.9027C11.1922 40.6 11.5274 40.5459 11.8518 40.5459H13.0738C13.6793 40.5459 13.701 40.9027 14.0254 41.9409L16.6207 50.5486C16.8478 51.2731 16.9883 51.4461 17.2587 51.4461C17.4642 51.4461 17.4966 51.511 17.4966 51.6191C17.4966 51.9219 17.2587 51.9868 16.9343 51.9868Z" fill="#848484"/>
<path d="M22.3844 44.7847C21.0003 44.7847 20.3406 45.9201 20.3406 47.0988V49.3157C20.3406 50.8296 21.2706 51.446 22.2547 51.446C23.7037 51.446 24.4499 50.1483 24.4499 47.7909C24.4499 45.931 23.7145 44.7847 22.3844 44.7847ZM22.3844 52.1813C21.5626 52.1813 20.8921 51.9542 20.3406 51.3486V54.8631C20.3406 55.6525 20.5677 55.6525 20.7948 55.6525C20.9678 55.6525 21.0003 55.7606 21.0003 55.858C21.0003 56.1824 20.7299 56.2581 20.4163 56.2581H18.9457C18.6861 56.2581 18.3509 56.1824 18.3509 55.858C18.3509 55.7606 18.3617 55.6525 18.5456 55.6525C18.7835 55.6525 19.0106 55.6092 19.0106 54.8523V45.6066C19.0106 45.0983 18.9024 44.7739 18.5456 44.7739C18.4158 44.7739 18.3725 44.6766 18.3725 44.5684C18.3725 44.2981 18.7078 44.1791 18.9565 44.1791H19.9405C20.3623 44.1791 20.3623 44.6009 20.3623 45.2281C21.0003 44.1359 22.0925 43.9304 22.8494 43.9304C24.5796 43.9304 25.9205 45.1199 25.9205 47.9748C25.9205 50.2997 24.6337 52.1921 22.4061 52.1921" fill="#848484"/>
<path d="M32.8197 46.526C32.3331 46.526 32.6142 44.9256 31.522 44.9256H30.6353V50.6028C30.6353 51.3706 30.8408 51.3706 31.0571 51.3706C31.2193 51.3706 31.295 51.5003 31.295 51.576C31.295 51.9004 31.0246 51.9761 30.7002 51.9761H29.2403C29.0133 51.9761 28.6456 51.9004 28.6456 51.576C28.6456 51.5003 28.6888 51.3706 28.8511 51.3706C29.0781 51.3706 29.3052 51.3706 29.3052 50.6028V44.9256H28.4185C27.3263 44.9256 27.5967 46.526 27.1209 46.526C26.8289 46.526 26.7316 45.7907 26.7316 45.4014C26.7316 44.7093 26.6991 44.0713 27.1209 44.0713C27.2939 44.0713 27.521 44.1794 28.4834 44.1794H31.4572C32.4088 44.1794 32.6467 44.0713 32.8197 44.0713C33.2414 44.0713 33.209 44.7093 33.209 45.4014C33.209 45.7907 33.1117 46.526 32.8197 46.526Z" fill="#848484"/>
<path d="M37.4912 44.6117C35.88 44.6117 35.5772 46.2986 35.5772 47.0231C35.5772 47.3259 35.6204 47.3259 35.88 47.3259H38.6915C39.1565 47.3259 39.2214 47.2178 39.2214 46.7204C39.2214 45.7904 38.8213 44.6225 37.4912 44.6225M40.1081 48.0396H35.5664C35.5664 49.5644 35.9989 51.3162 37.8805 51.3162C38.9186 51.3162 39.4377 50.862 39.9243 50.224C39.9892 50.1159 40.119 49.9537 40.292 49.9537C40.4542 49.9537 40.6164 50.051 40.6164 50.2456C40.6164 50.4078 40.6056 50.4727 40.5407 50.5809C40.0433 51.5757 38.8105 52.2029 37.502 52.2029C35.5772 52.2029 34.1281 50.8728 34.1281 48.191C34.1281 45.5092 35.4907 43.9304 37.5453 43.9304C39.5999 43.9304 40.7029 45.3254 40.7029 47.1637C40.7029 47.9207 40.3785 48.0504 40.1081 48.0504" fill="#848484"/>
<path d="M45.634 44.7847C44.2498 44.7847 43.5902 45.9201 43.5902 47.0988V49.3157C43.5902 50.8296 44.5201 51.446 45.5042 51.446C46.9532 51.446 47.6994 50.1483 47.6994 47.7909C47.6994 45.931 46.964 44.7847 45.634 44.7847ZM45.634 52.1813C44.8121 52.1813 44.1417 51.9542 43.5902 51.3486V54.8631C43.5902 55.6525 43.8172 55.6525 44.0443 55.6525C44.2174 55.6525 44.2498 55.7606 44.2498 55.858C44.2498 56.1824 43.9795 56.2581 43.6767 56.2581H42.1952C41.9357 56.2581 41.6004 56.1824 41.6004 55.858C41.6004 55.7606 41.6112 55.6525 41.7951 55.6525C42.033 55.6525 42.2601 55.6092 42.2601 54.8523V45.6066C42.2601 45.0983 42.1519 44.7739 41.7951 44.7739C41.6653 44.7739 41.6221 44.6766 41.6221 44.5684C41.6221 44.2981 41.9573 44.1791 42.206 44.1791H43.1792C43.601 44.1791 43.601 44.6009 43.601 45.2281C44.239 44.1359 45.3312 43.9304 46.0881 43.9304C47.8183 43.9304 49.1592 45.1199 49.1592 47.9748C49.1592 50.2997 47.8724 52.1921 45.6448 52.1921" fill="#848484"/>
<path d="M51.4409 42.9467C50.9868 42.9467 50.5758 42.525 50.5758 42.0817C50.5758 41.6383 50.9976 41.2166 51.4409 41.2166C51.9167 41.2166 52.3385 41.6167 52.3385 42.0817C52.3385 42.5466 51.9167 42.9467 51.4409 42.9467ZM52.306 51.987H50.857C50.6191 51.987 50.2622 51.9113 50.2622 51.5869C50.2622 51.5112 50.2947 51.3815 50.4677 51.3815C50.6732 51.3815 50.9219 51.3815 50.9219 50.6137V45.5853C50.9219 44.9905 50.684 44.7851 50.4677 44.7851C50.2947 44.7851 50.2622 44.6878 50.2622 44.5796C50.2622 44.2768 50.6191 44.1903 50.857 44.1903H51.8843C52.3601 44.1903 52.252 44.9905 52.252 45.5853V50.6137C52.252 51.3815 52.4574 51.3815 52.6737 51.3815C52.8684 51.3815 52.9116 51.5112 52.9116 51.5869C52.9116 51.9113 52.6196 51.987 52.306 51.987Z" fill="#848484"/>
<path d="M61.0435 44.7744C60.8164 44.7744 60.6542 44.8069 60.4163 45.5638L58.4698 51.652C57.648 54.2365 56.8045 56.118 55.7231 56.118C55.1933 56.118 54.9662 55.8585 54.9662 55.2205C54.9662 54.5825 55.2257 54.3662 55.5934 54.3662C55.788 54.3662 55.9286 54.4095 56.253 54.4095C56.7937 54.4095 57.1506 53.6525 57.1506 53.0145C57.1506 52.5603 56.9775 52.117 56.7937 51.652L54.5661 45.9315C54.1768 44.9366 54.0686 44.7744 53.8091 44.7744C53.6469 44.7744 53.6145 44.6771 53.6145 44.569C53.6145 44.2662 53.9497 44.1797 54.2092 44.1797H55.7231C56.0151 44.1797 56.2963 44.2554 56.2963 44.569C56.2963 44.6771 56.2638 44.7744 56.0692 44.7744C55.9719 44.7744 55.7772 44.7744 55.7772 45.1097C55.7772 45.2827 55.8097 45.499 56.0043 45.9964L57.9508 51.1221L59.4647 45.5963C59.5296 45.3908 59.5296 45.2611 59.5296 45.1097C59.5296 44.8826 59.3998 44.7744 59.2052 44.7744C59.0105 44.7744 58.9781 44.6771 58.9781 44.569C58.9781 44.2662 59.2701 44.1797 59.5512 44.1797H60.6326C60.9029 44.1797 61.2273 44.1905 61.2273 44.5149C61.2273 44.6555 61.1625 44.7744 61.0327 44.7744" fill="#848484"/>
<path d="M70.9165 51.9764H69.4566C69.2187 51.9764 68.8511 51.9007 68.8511 51.5763C68.8511 51.5006 68.8943 51.3708 69.089 51.3708C69.2836 51.3708 69.5215 51.3708 69.5215 50.603V45.5638H69.4566L66.9046 51.4681C66.6991 51.9656 66.5802 52.0953 66.3747 52.0953C66.1801 52.0953 66.1044 51.9656 65.9097 51.5006L63.3685 45.5638H63.3036V50.603C63.3036 51.1113 63.5415 51.3708 63.7362 51.3708C63.9308 51.3708 63.9741 51.5006 63.9741 51.5763C63.9741 51.9007 63.6713 51.9764 63.3469 51.9764H62.3845C62.0925 51.9764 61.9195 51.9007 61.9195 51.5763C61.9195 51.4681 61.9952 51.3708 62.1574 51.3708C62.3844 51.3708 62.5467 51.1113 62.5467 50.603V45.5747C62.5467 44.8501 62.3196 44.7744 62.0925 44.7744C61.9303 44.7744 61.9195 44.6339 61.9195 44.5149C61.9195 44.2554 62.2439 44.1797 62.4602 44.1797H63.9741C64.1363 44.1797 64.3093 44.2121 64.3958 44.4176L66.7424 50.2462L69.2512 44.3419C69.2944 44.2446 69.3917 44.1797 69.5107 44.1797H70.9273C71.2517 44.1797 71.5329 44.2554 71.5329 44.5798C71.5329 44.6771 71.4896 44.7853 71.295 44.7853C71.0895 44.7853 70.8624 44.7853 70.8624 45.553V50.5922C70.8624 51.36 71.0895 51.36 71.295 51.36C71.4896 51.36 71.5329 51.4898 71.5329 51.5655C71.5329 51.8899 71.2409 51.9656 70.9273 51.9656" fill="#848484"/>
<path d="M74.6364 51.1431L76.5288 47.9963L74.6364 44.7089L74.9608 44.5359L78.3455 48.0071L74.9608 51.2837L74.6364 51.1539V51.1431ZM72.8521 50.7105L74.0524 47.9855L72.8521 45.2929L73.09 45.1847L75.5015 48.0071L73.09 50.8295L72.8521 50.7213V50.7105Z" fill="#848484"/>
<path d="M89.8729 42.7951H89.5485V49.9213C92.4249 49.9213 93.0629 47.9641 93.0629 46.3528C93.0629 44.2117 92.2952 42.7843 89.8729 42.7843M88.1211 42.7843H87.7967C85.3744 42.7843 84.6066 44.2117 84.6066 46.3528C84.6066 47.9532 85.2446 49.9213 88.1211 49.9213V42.7951V42.7843ZM89.5485 50.5269V51.0135C89.5485 51.7164 89.808 51.8138 90.0135 51.8138C90.2081 51.8138 90.2406 51.8786 90.2406 52.0084C90.2406 52.3004 89.8837 52.3112 89.6458 52.3112H88.0346C87.7426 52.3112 87.429 52.3004 87.429 52.0084C87.429 51.8786 87.4398 51.8138 87.6345 51.8138C87.8399 51.8138 88.1211 51.7164 88.1211 51.0135V50.5269C84.5742 50.5269 83.0819 48.9265 83.0819 46.2122C83.0819 43.498 85.2663 42.1787 87.721 42.1787H88.1211V41.7786C88.1211 41.0757 87.8507 40.9784 87.6345 40.9784C87.4398 40.9784 87.429 40.9027 87.429 40.7837C87.429 40.4918 87.7534 40.481 88.0346 40.481H89.6458C89.8837 40.481 90.2406 40.4918 90.2406 40.7837C90.2406 40.9027 90.2081 40.9784 90.0135 40.9784C89.808 40.9784 89.5485 41.0757 89.5485 41.7786V42.1787H89.9702C92.4141 42.1787 94.5985 43.3033 94.5985 46.2122C94.5985 48.4723 93.1062 50.5269 89.5593 50.5269" fill="#848484"/>
<path d="M100.135 47.7264C99.8972 47.9643 99.5404 48.0616 99.2484 48.1806C98.2644 48.5699 97.0965 48.7862 97.0965 50.0297C97.0965 50.4839 97.2371 51.2625 98.1562 51.2625C99.1835 51.2625 99.8756 50.2785 100.135 49.6945V47.7372V47.7264ZM101.368 52.106C100.806 52.106 100.135 52.1817 100.135 51.057V50.7002C99.5728 51.4896 98.9024 52.1817 97.5507 52.1817C96.6207 52.1817 95.7231 51.6085 95.7231 50.2676C95.7231 48.3752 97.5182 48.1049 98.9997 47.6075C99.5512 47.4128 100.135 47.1749 100.135 46.7424V45.5745C100.135 45.2176 99.9297 44.6553 99.0321 44.6553C98.1346 44.6553 97.7129 45.1419 97.4425 45.7151C97.2803 46.0395 97.1397 46.6018 96.7721 46.6018C96.4044 46.6018 96.372 45.7475 96.372 45.4988C96.372 44.9365 96.5342 44.6012 96.7721 44.4499C97.0424 44.3201 97.1938 44.2876 97.6372 44.1795C98.167 44.0497 98.7618 43.9849 99.2376 43.9849C100.33 43.9849 101.465 44.2444 101.465 45.6502V50.592C101.465 51.1868 101.541 51.4247 101.855 51.4247C102.017 51.4247 102.06 51.522 102.06 51.6302C102.06 51.933 101.638 52.0952 101.368 52.0952" fill="#848484"/>
<path d="M107.294 44.7847C105.91 44.7847 105.25 45.9201 105.25 47.0988V49.3157C105.25 50.8296 106.18 51.446 107.164 51.446C108.613 51.446 109.359 50.1483 109.359 47.7909C109.359 45.931 108.624 44.7847 107.294 44.7847ZM107.294 52.1813C106.472 52.1813 105.802 51.9542 105.25 51.3486V54.8631C105.25 55.6525 105.477 55.6525 105.704 55.6525C105.877 55.6525 105.91 55.7606 105.91 55.858C105.91 56.1824 105.639 56.2581 105.326 56.2581H103.855C103.596 56.2581 103.26 56.1824 103.26 55.858C103.26 55.7606 103.271 55.6525 103.455 55.6525C103.693 55.6525 103.92 55.6092 103.92 54.8523V45.6066C103.92 45.0983 103.812 44.7739 103.455 44.7739C103.325 44.7739 103.282 44.6766 103.282 44.5684C103.282 44.2981 103.617 44.1791 103.866 44.1791H104.85C105.272 44.1791 105.272 44.6009 105.272 45.2281C105.91 44.1359 107.002 43.9304 107.759 43.9304C109.489 43.9304 110.83 45.1199 110.83 47.9748C110.83 50.2997 109.543 52.1921 107.316 52.1921" fill="#848484"/>
<path d="M120.962 51.9764H119.503C119.265 51.9764 118.897 51.9007 118.897 51.5763C118.897 51.5006 118.94 51.3708 119.135 51.3708C119.329 51.3708 119.567 51.3708 119.567 50.603V45.5638H119.503L116.95 51.4681C116.745 51.9656 116.626 52.0953 116.421 52.0953C116.226 52.0953 116.15 51.9656 115.956 51.5006L113.414 45.5638H113.349V50.603C113.349 51.1113 113.587 51.3708 113.782 51.3708C113.977 51.3708 114.02 51.5006 114.02 51.5763C114.02 51.9007 113.717 51.9764 113.393 51.9764H112.43C112.138 51.9764 111.965 51.9007 111.965 51.5763C111.965 51.4681 112.041 51.3708 112.203 51.3708C112.43 51.3708 112.593 51.1113 112.593 50.603V45.5747C112.593 44.8501 112.365 44.7744 112.138 44.7744C111.976 44.7744 111.965 44.6339 111.965 44.5149C111.965 44.2554 112.29 44.1797 112.506 44.1797H114.02C114.182 44.1797 114.355 44.2121 114.442 44.4176L116.788 50.2462L119.297 44.3419C119.34 44.2446 119.438 44.1797 119.557 44.1797H120.973C121.298 44.1797 121.579 44.2554 121.579 44.5798C121.579 44.6771 121.535 44.7853 121.341 44.7853C121.135 44.7853 120.908 44.7853 120.908 45.553V50.5922C120.908 51.36 121.135 51.36 121.341 51.36C121.535 51.36 121.579 51.4898 121.579 51.5655C121.579 51.8899 121.287 51.9656 120.973 51.9656" fill="#848484"/>
<path d="M127.191 47.7264C126.953 47.9643 126.596 48.0616 126.304 48.1806C125.331 48.5699 124.152 48.7862 124.152 50.0297C124.152 50.4839 124.293 51.2625 125.212 51.2625C126.239 51.2625 126.932 50.2785 127.191 49.6945V47.7372V47.7264ZM128.424 52.106C127.862 52.106 127.191 52.1817 127.191 51.057V50.7002C126.629 51.4896 125.958 52.1817 124.607 52.1817C123.677 52.1817 122.779 51.6085 122.779 50.2676C122.779 48.3752 124.574 48.1049 126.056 47.6075C126.607 47.4128 127.191 47.1749 127.191 46.7424V45.5745C127.191 45.2176 126.986 44.6553 126.088 44.6553C125.191 44.6553 124.769 45.1419 124.498 45.7151C124.336 46.0395 124.196 46.6018 123.828 46.6018C123.46 46.6018 123.428 45.7475 123.428 45.4988C123.428 44.9365 123.59 44.6012 123.828 44.4499C124.098 44.3201 124.25 44.2876 124.693 44.1795C125.223 44.0497 125.818 43.9849 126.294 43.9849C127.386 43.9849 128.521 44.2444 128.521 45.6502V50.592C128.521 51.1868 128.597 51.4247 128.91 51.4247C129.073 51.4247 129.116 51.522 129.116 51.6302C129.116 51.933 128.694 52.0952 128.424 52.0952" fill="#848484"/>
<path d="M137.497 53.8904C137.129 53.8904 137.129 52.7658 136.891 52.4089C136.664 52.0737 136.394 51.9764 135.788 51.9764H130.911C130.684 51.9764 130.338 51.9007 130.338 51.5763C130.338 51.5006 130.381 51.3708 130.543 51.3708C130.77 51.3708 130.998 51.36 130.998 50.603V45.5747C130.998 44.8718 130.77 44.7744 130.543 44.7744C130.381 44.7744 130.338 44.6771 130.338 44.569C130.338 44.2662 130.695 44.1797 130.911 44.1797H132.371C132.674 44.1797 132.987 44.2554 132.987 44.569C132.987 44.6771 132.922 44.7744 132.76 44.7744C132.533 44.7744 132.328 44.8609 132.328 45.5747V51.0031C132.328 51.2627 132.393 51.2627 132.522 51.2627H135.377C135.539 51.2627 135.604 51.2627 135.604 51.0031V45.5747C135.604 44.8393 135.345 44.7744 135.161 44.7744C134.988 44.7744 134.934 44.6771 134.934 44.569C134.934 44.2662 135.301 44.1797 135.528 44.1797H136.956C137.28 44.1797 137.583 44.2554 137.583 44.569C137.583 44.6771 137.54 44.7744 137.356 44.7744C137.151 44.7744 136.934 44.8393 136.934 45.5747V50.7977C136.934 51.2735 137.075 51.2627 137.637 51.2627C137.799 51.2627 137.994 51.3059 137.994 51.5871V52.0413C137.994 52.5387 137.918 53.9012 137.507 53.9012" fill="#848484"/>
<path d="M142.352 44.6117C140.741 44.6117 140.438 46.2986 140.438 47.0231C140.438 47.3259 140.481 47.3259 140.741 47.3259H143.552C144.017 47.3259 144.082 47.2178 144.082 46.7204C144.082 45.7904 143.682 44.6225 142.352 44.6225M144.969 48.0396H140.427C140.427 49.5644 140.86 51.3162 142.741 51.3162C143.779 51.3162 144.298 50.862 144.785 50.224C144.85 50.1159 144.98 49.9537 145.153 49.9537C145.315 49.9537 145.477 50.051 145.477 50.2456C145.477 50.4078 145.466 50.4727 145.401 50.5809C144.904 51.5757 143.671 52.2029 142.363 52.2029C140.438 52.2029 138.989 50.8728 138.989 48.191C138.989 45.5092 140.351 43.9304 142.406 43.9304C144.461 43.9304 145.564 45.3254 145.564 47.1637C145.564 47.9207 145.239 48.0504 144.969 48.0504" fill="#848484"/>
<path d="M149.997 48.2889H148.451V50.6355C148.451 51.1329 148.505 51.2627 148.883 51.2627H150.181C150.484 51.2627 151.63 51.1545 151.63 49.7163C151.63 49.0891 151.306 48.2889 149.997 48.2889ZM150.095 44.915H149.229C148.7 44.915 148.462 44.9258 148.462 45.3908V47.6076H149.878C150.797 47.6076 151.371 47.1535 151.371 46.1478C151.371 45.2611 150.754 44.915 150.105 44.915M150.105 51.9764H147.067C146.829 51.9764 146.472 51.9007 146.472 51.5763C146.472 51.5006 146.515 51.3708 146.677 51.3708C146.904 51.3708 147.132 51.3708 147.132 50.603V45.5747C147.132 44.8501 146.904 44.7744 146.677 44.7744C146.515 44.7744 146.472 44.6771 146.472 44.569C146.472 44.2662 146.829 44.1797 147.045 44.1797H150.268C151.154 44.1797 152.722 44.3527 152.722 45.9639C152.722 47.1967 151.63 47.6185 151.143 47.8455V47.8888C151.836 47.9861 153.036 48.4619 153.036 49.8136C153.036 51.6412 151.143 51.9764 150.084 51.9764" fill="#848484"/>
<path d="M160.032 46.526C159.546 46.526 159.827 44.9256 158.735 44.9256H157.848V50.6028C157.848 51.3706 158.053 51.3706 158.27 51.3706C158.432 51.3706 158.508 51.5003 158.508 51.576C158.508 51.9004 158.237 51.9761 157.913 51.9761H156.453C156.226 51.9761 155.858 51.9004 155.858 51.576C155.858 51.5003 155.902 51.3706 156.064 51.3706C156.291 51.3706 156.518 51.3706 156.518 50.6028V44.9256H155.631C154.539 44.9256 154.809 46.526 154.334 46.526C154.042 46.526 153.955 45.7907 153.955 45.4014C153.955 44.7093 153.923 44.0713 154.334 44.0713C154.507 44.0713 154.734 44.1794 155.696 44.1794H158.67C159.621 44.1794 159.859 44.0713 160.032 44.0713C160.454 44.0713 160.422 44.7093 160.422 45.4014C160.422 45.7907 160.324 46.526 160.032 46.526Z" fill="#848484"/>
<path d="M168.208 51.9764H166.748C166.521 51.9764 166.153 51.9007 166.153 51.5763C166.153 51.5006 166.196 51.3708 166.358 51.3708C166.586 51.3708 166.813 51.3708 166.813 50.603V46.3424L163.428 50.7112C163.363 50.8085 163.32 50.8518 163.32 50.9491C163.32 51.3492 163.428 51.4033 163.612 51.4033C163.806 51.4033 163.839 51.479 163.839 51.5763C163.839 51.8791 163.482 51.9764 163.244 51.9764H161.925C161.6 51.9764 161.33 51.8791 161.33 51.5763C161.33 51.479 161.373 51.4033 161.536 51.4033C161.773 51.4033 161.99 51.3492 161.99 50.603V45.5747C161.99 44.8501 161.763 44.7744 161.536 44.7744C161.373 44.7744 161.33 44.6771 161.33 44.569C161.33 44.2662 161.687 44.1797 161.903 44.1797H163.363C163.666 44.1797 163.979 44.2554 163.979 44.569C163.979 44.6771 163.915 44.7744 163.752 44.7744C163.525 44.7744 163.32 44.8501 163.32 45.5747V49.8353L166.726 45.4016C166.791 45.3368 166.823 45.3043 166.823 45.1745C166.823 44.7744 166.661 44.7744 166.499 44.7744C166.326 44.7744 166.272 44.6771 166.272 44.569C166.272 44.2662 166.64 44.1797 166.845 44.1797H168.197C168.521 44.1797 168.802 44.2554 168.802 44.569C168.802 44.6771 168.737 44.7744 168.575 44.7744C168.348 44.7744 168.143 44.8393 168.143 45.5747V50.603C168.143 51.3708 168.348 51.3708 168.564 51.3708C168.759 51.3708 168.802 51.5006 168.802 51.5763C168.802 51.9007 168.532 51.9764 168.208 51.9764Z" fill="#848484"/>
<path d="M176.199 51.9764H174.717C174.49 51.9764 174.123 51.9007 174.123 51.5763C174.123 51.5006 174.166 51.3708 174.35 51.3708C174.555 51.3708 174.793 51.3708 174.793 50.603V48.1916C174.793 48.1916 173.863 49.0783 172.436 49.0783C171.008 49.0783 170.457 48.4079 170.457 47.294V45.5747C170.457 44.8718 170.197 44.7744 170.003 44.7744C169.83 44.7744 169.776 44.6771 169.776 44.569C169.776 44.2662 170.143 44.1797 170.37 44.1797H171.819C172.144 44.1797 172.447 44.2554 172.447 44.569C172.447 44.6771 172.403 44.7744 172.219 44.7744C172.014 44.7744 171.776 44.8718 171.776 45.5747V47.0237C171.776 47.878 172.079 48.2781 173.063 48.2781C173.96 48.2781 174.793 47.6184 174.793 47.1967V45.5747C174.793 44.8718 174.555 44.7744 174.35 44.7744C174.177 44.7744 174.123 44.6771 174.123 44.569C174.123 44.2662 174.49 44.1797 174.696 44.1797H176.177C176.502 44.1797 176.804 44.2554 176.804 44.569C176.804 44.6771 176.729 44.7744 176.577 44.7744C176.35 44.7744 176.123 44.8718 176.123 45.5747V50.603C176.123 51.3708 176.35 51.3708 176.556 51.3708C176.75 51.3708 176.794 51.5006 176.794 51.5763C176.794 51.9007 176.502 51.9764 176.188 51.9764" fill="#848484"/>
<path d="M184.644 51.9764H183.195C182.958 51.9764 182.59 51.9007 182.59 51.5763C182.59 51.5006 182.633 51.3708 182.817 51.3708C183.012 51.3708 183.26 51.3708 183.26 50.603V48.1591H179.984V50.603C179.984 51.3708 180.189 51.3708 180.416 51.3708C180.589 51.3708 180.643 51.5006 180.643 51.5763C180.643 51.9007 180.373 51.9764 180.049 51.9764H178.589C178.351 51.9764 177.994 51.9007 177.994 51.5763C177.994 51.5006 178.037 51.3708 178.199 51.3708C178.427 51.3708 178.654 51.3708 178.654 50.603V45.5747C178.654 44.8501 178.427 44.7744 178.199 44.7744C178.037 44.7744 177.994 44.6771 177.994 44.569C177.994 44.2662 178.351 44.1797 178.567 44.1797H180.027C180.33 44.1797 180.633 44.2554 180.633 44.569C180.633 44.6771 180.568 44.7744 180.405 44.7744C180.178 44.7744 179.973 44.8501 179.973 45.5747V47.4562H183.249V45.5747C183.249 44.8393 182.99 44.7744 182.806 44.7744C182.633 44.7744 182.579 44.6771 182.579 44.569C182.579 44.2662 182.947 44.1797 183.174 44.1797H184.623C184.947 44.1797 185.25 44.2554 185.25 44.569C185.25 44.6771 185.207 44.7744 185.023 44.7744C184.817 44.7744 184.59 44.8393 184.59 45.5747V50.603C184.59 51.3708 184.817 51.3708 185.001 51.3708C185.207 51.3708 185.239 51.5006 185.239 51.5763C185.239 51.9007 184.947 51.9764 184.634 51.9764" fill="#848484"/>
<path d="M190.83 47.7264C190.592 47.9643 190.235 48.0616 189.943 48.1806C188.97 48.5699 187.791 48.7862 187.791 50.0297C187.791 50.4839 187.932 51.2625 188.851 51.2625C189.878 51.2625 190.57 50.2785 190.83 49.6945V47.7372V47.7264ZM192.063 52.106C191.5 52.106 190.83 52.1817 190.83 51.057V50.7002C190.268 51.4896 189.597 52.1817 188.245 52.1817C187.316 52.1817 186.418 51.6085 186.418 50.2676C186.418 48.3752 188.213 48.1049 189.695 47.6075C190.246 47.4128 190.83 47.1749 190.83 46.7424V45.5745C190.83 45.2176 190.625 44.6553 189.716 44.6553C188.808 44.6553 188.397 45.1419 188.127 45.7151C187.964 46.0395 187.824 46.6018 187.456 46.6018C187.088 46.6018 187.056 45.7475 187.056 45.4988C187.056 44.9365 187.218 44.6012 187.456 44.4499C187.726 44.3201 187.878 44.2876 188.321 44.1795C188.851 44.0497 189.446 43.9849 189.922 43.9849C191.014 43.9849 192.149 44.2444 192.149 45.6502V50.592C192.149 51.1868 192.225 51.4247 192.539 51.4247C192.701 51.4247 192.744 51.522 192.744 51.6302C192.744 51.933 192.322 52.0952 192.052 52.0952" fill="#848484"/>
<path d="M205.537 52.0734C204.942 52.0734 204.542 51.9761 203.806 50.8515C203.136 49.8566 202.649 49.0672 201.957 48.0291C201.352 47.1099 200.897 46.4178 200.627 46.2664C200.335 46.3962 200.022 46.5584 200.022 46.5584V50.6352C200.022 51.3597 200.292 51.4678 200.519 51.4678C200.714 51.4678 200.746 51.5327 200.746 51.6625C200.746 51.9653 200.378 51.9869 200.13 51.9869H198.432C198.194 51.9869 197.826 51.9761 197.826 51.6625C197.826 51.5327 197.891 51.4678 198.032 51.4678C198.259 51.4678 198.529 51.3597 198.529 50.6352V41.8869C198.529 41.1624 198.237 41.065 198.01 41.065C197.837 41.065 197.816 40.9677 197.816 40.8596C197.816 40.5568 198.151 40.5352 198.421 40.5352H200.119C200.357 40.5352 200.735 40.546 200.735 40.8596C200.735 40.9677 200.703 41.065 200.508 41.065C200.281 41.065 200.011 41.1624 200.011 41.8869V45.8988C200.011 45.8988 201.103 45.423 202.303 44.2659C203.687 42.9466 204.001 42.0815 204.001 41.5841C204.001 41.2921 203.925 41.2056 203.731 41.1407C203.558 41.0758 203.46 41.0758 203.46 40.9136C203.46 40.5892 203.763 40.546 204.098 40.546H205.515C205.904 40.546 206.153 40.5135 206.153 40.8704C206.153 41.0975 205.601 41.476 204.996 42.2329C203.644 43.9307 202.768 44.7741 201.849 45.5095C202.217 45.8663 202.52 46.407 203.114 47.2613C203.666 48.0183 204.347 49.078 205.18 50.181C205.883 51.1434 206.499 51.1975 206.499 51.5003C206.499 51.7598 206.207 52.095 205.515 52.095" fill="#848484"/>
<path d="M211.03 44.612C209.613 44.612 208.846 45.7042 208.846 47.7696C208.846 49.954 209.646 51.4895 211.095 51.4895C212.544 51.4895 213.258 50.3865 213.258 48.2995C213.258 46.2124 212.436 44.612 211.03 44.612ZM211.095 52.1924C208.748 52.1924 207.418 50.4298 207.418 48.0183C207.418 45.369 209.181 43.9199 211.03 43.9199C213.355 43.9199 214.685 45.6717 214.685 48.0616C214.685 50.6353 212.922 52.1924 211.084 52.1924" fill="#848484"/>
<path d="M219.94 44.7847C218.556 44.7847 217.897 45.9201 217.897 47.0988V49.3157C217.897 50.8296 218.827 51.446 219.811 51.446C221.26 51.446 222.006 50.1483 222.006 47.7909C222.006 45.931 221.271 44.7847 219.94 44.7847ZM219.94 52.1813C219.119 52.1813 218.448 51.9542 217.897 51.3486V54.8631C217.897 55.6525 218.124 55.6525 218.351 55.6525C218.524 55.6525 218.556 55.7606 218.556 55.858C218.556 56.1824 218.286 56.2581 217.972 56.2581H216.502C216.242 56.2581 215.907 56.1824 215.907 55.858C215.907 55.7606 215.918 55.6525 216.102 55.6525C216.34 55.6525 216.567 55.6092 216.567 54.8523V45.6066C216.567 45.0983 216.458 44.7739 216.102 44.7739C215.972 44.7739 215.929 44.6766 215.929 44.5684C215.929 44.2981 216.264 44.1791 216.513 44.1791H217.486C217.908 44.1791 217.908 44.6009 217.908 45.2281C218.546 44.1359 219.638 43.9304 220.395 43.9304C222.125 43.9304 223.466 45.1199 223.466 47.9748C223.466 50.2997 222.179 52.1921 219.951 52.1921" fill="#848484"/>
<path d="M231.619 44.7851C231.425 44.7851 231.187 44.7851 231.187 45.5529V50.5921C231.187 51.349 231.414 51.3598 231.608 51.3598C231.814 51.3598 231.846 51.4896 231.846 51.5653C231.846 51.8897 231.554 51.9654 231.241 51.9654H229.813C229.576 51.9654 229.208 51.8897 229.208 51.5653C229.208 51.4896 229.251 51.3598 229.435 51.3598C229.63 51.3598 229.889 51.3598 229.889 50.5921V45.1852C229.889 44.9148 229.824 44.9148 229.662 44.9148H226.786C226.656 44.9148 226.591 44.9148 226.591 45.1852V50.5921C226.591 51.3598 226.796 51.3598 227.023 51.3598C227.196 51.3598 227.251 51.4896 227.251 51.5653C227.251 51.8897 226.98 51.9654 226.656 51.9654H225.196C224.958 51.9654 224.601 51.8897 224.601 51.5653C224.601 51.4896 224.655 51.3598 224.807 51.3598C225.034 51.3598 225.261 51.3598 225.261 50.5921V45.5637C225.261 44.8392 225.034 44.7635 224.807 44.7635C224.644 44.7635 224.601 44.6878 224.601 44.5039C224.601 44.2011 224.958 44.1687 225.174 44.1687H231.262C231.587 44.1687 231.879 44.2444 231.879 44.5688C231.879 44.6661 231.846 44.7743 231.641 44.7743" fill="#848484"/>
<path d="M236.68 44.612C235.264 44.612 234.496 45.7042 234.496 47.7696C234.496 49.954 235.296 51.4895 236.745 51.4895C238.194 51.4895 238.908 50.3865 238.908 48.2995C238.908 46.2124 238.086 44.612 236.68 44.612ZM236.745 52.1924C234.398 52.1924 233.068 50.4298 233.068 48.0183C233.068 45.369 234.831 43.9199 236.68 43.9199C239.005 43.9199 240.346 45.6717 240.346 48.0616C240.346 50.6353 238.583 52.1924 236.745 52.1924Z" fill="#848484"/>
<path d="M245.591 44.7847C244.207 44.7847 243.547 45.9201 243.547 47.0988V49.3157C243.547 50.8296 244.477 51.446 245.461 51.446C246.91 51.446 247.656 50.1483 247.656 47.7909C247.656 45.931 246.921 44.7847 245.591 44.7847ZM245.591 52.1813C244.769 52.1813 244.098 51.9542 243.547 51.3486V54.8631C243.547 55.6525 243.774 55.6525 244.001 55.6525C244.174 55.6525 244.207 55.7606 244.207 55.858C244.207 56.1824 243.936 56.2581 243.633 56.2581H242.152C241.892 56.2581 241.557 56.1824 241.557 55.858C241.557 55.7606 241.579 55.6525 241.752 55.6525C241.99 55.6525 242.217 55.6092 242.217 54.8523V45.6066C242.217 45.0983 242.109 44.7739 241.752 44.7739C241.622 44.7739 241.579 44.6766 241.579 44.5684C241.579 44.2981 241.914 44.1791 242.163 44.1791H243.147C243.568 44.1791 243.569 44.6009 243.569 45.2281C244.207 44.1359 245.299 43.9304 246.056 43.9304C247.786 43.9304 249.127 45.1199 249.127 47.9748C249.127 50.2997 247.84 52.1921 245.612 52.1921" fill="#848484"/>
<path d="M254.631 47.7264C254.393 47.9643 254.036 48.0616 253.744 48.1806C252.771 48.5699 251.592 48.7862 251.592 50.0297C251.592 50.4839 251.733 51.2625 252.652 51.2625C253.679 51.2625 254.371 50.2785 254.631 49.6945V47.7372V47.7264ZM255.864 52.106C255.301 52.106 254.631 52.1817 254.631 51.057V50.7002C254.069 51.4896 253.398 52.1817 252.046 52.1817C251.116 52.1817 250.219 51.6085 250.219 50.2676C250.219 48.3752 252.014 48.1049 253.495 47.6075C254.047 47.4128 254.631 47.1749 254.631 46.7424V45.5745C254.631 45.2176 254.425 44.6553 253.517 44.6553C252.609 44.6553 252.198 45.1419 251.927 45.7151C251.765 46.0395 251.625 46.6018 251.257 46.6018C250.889 46.6018 250.857 45.7475 250.857 45.4988C250.857 44.9365 251.019 44.6012 251.257 44.4499C251.527 44.3201 251.679 44.2876 252.122 44.1795C252.652 44.0497 253.247 43.9849 253.723 43.9849C254.815 43.9849 255.95 44.2444 255.95 45.6502V50.592C255.95 51.1868 256.026 51.4247 256.339 51.4247C256.502 51.4247 256.545 51.522 256.545 51.6302C256.545 51.933 256.123 52.0952 255.853 52.0952" fill="#848484"/>
<path d="M264.936 53.8904C264.569 53.8904 264.569 52.7658 264.331 52.4089C264.104 52.0737 263.833 51.9764 263.228 51.9764H258.351C258.124 51.9764 257.778 51.9007 257.778 51.5763C257.778 51.5006 257.821 51.3708 257.983 51.3708C258.21 51.3708 258.437 51.36 258.437 50.603V45.5747C258.437 44.8718 258.21 44.7744 257.983 44.7744C257.821 44.7744 257.778 44.6771 257.778 44.569C257.778 44.2662 258.135 44.1797 258.351 44.1797H259.811C260.113 44.1797 260.416 44.2554 260.416 44.569C260.416 44.6771 260.351 44.7744 260.189 44.7744C259.962 44.7744 259.757 44.8609 259.757 45.5747V51.0031C259.757 51.2627 259.822 51.2627 259.951 51.2627H262.806C262.968 51.2627 263.033 51.2627 263.033 51.0031V45.5747C263.033 44.8393 262.774 44.7744 262.59 44.7744C262.417 44.7744 262.363 44.6771 262.363 44.569C262.363 44.2662 262.73 44.1797 262.957 44.1797H264.385C264.709 44.1797 265.012 44.2554 265.012 44.569C265.012 44.6771 264.958 44.7744 264.785 44.7744C264.58 44.7744 264.363 44.8393 264.363 45.5747V50.7977C264.363 51.2735 264.504 51.2627 265.066 51.2627C265.228 51.2627 265.423 51.3059 265.423 51.5871V52.0413C265.423 52.5387 265.337 53.9012 264.936 53.9012" fill="#848484"/>
<path d="M267.575 42.9467C267.121 42.9467 266.71 42.525 266.71 42.0817C266.71 41.6383 267.132 41.2166 267.575 41.2166C268.062 41.2166 268.472 41.6167 268.472 42.0817C268.472 42.5466 268.051 42.9467 267.575 42.9467ZM268.44 51.987H266.991C266.753 51.987 266.396 51.9113 266.396 51.5869C266.396 51.5112 266.429 51.3815 266.602 51.3815C266.807 51.3815 267.056 51.3815 267.056 50.6137V45.5853C267.056 44.9905 266.818 44.7851 266.602 44.7851C266.429 44.7851 266.396 44.6878 266.396 44.5796C266.396 44.2768 266.753 44.1903 266.991 44.1903H268.018C268.505 44.1903 268.386 44.9905 268.386 45.5853V50.6137C268.386 51.3815 268.591 51.3815 268.808 51.3815C269.002 51.3815 269.046 51.5112 269.046 51.5869C269.046 51.9113 268.754 51.987 268.44 51.987Z" fill="#848484"/>
<path d="M274.961 45.4334C274.961 45.0442 274.928 44.9252 274.55 44.9252H273.75C273.231 44.9252 272.095 45.055 272.095 46.5473C272.095 48.0396 273.155 48.3099 274.02 48.3099C274.755 48.3099 274.972 48.2234 274.972 47.8774V45.4334H274.961ZM276.356 51.9866H274.907C274.669 51.9866 274.312 51.9109 274.312 51.5865C274.312 51.5108 274.344 51.381 274.517 51.381C274.723 51.381 274.95 51.381 274.95 50.6132V48.8181C274.95 48.8181 274.561 48.9155 274.052 48.9479C273.815 49.175 273.587 49.5427 272.982 50.3645C272.117 51.554 271.684 52.1812 270.787 52.1812C270.484 52.1812 269.997 52.1163 269.997 51.7162C269.997 51.4243 270.451 51.3486 271.317 50.3537L272.712 48.7424C271.609 48.5154 270.689 47.8882 270.689 46.4607C270.689 44.471 272.474 44.2007 273.728 44.2007H276.356C276.68 44.2007 276.951 44.298 276.951 44.6008C276.951 44.7089 276.907 44.8062 276.723 44.8062C276.518 44.8062 276.291 44.8063 276.291 45.5957V50.624C276.291 51.3918 276.518 51.3918 276.723 51.3918C276.896 51.3918 276.951 51.5216 276.951 51.5973C276.951 51.9217 276.68 51.9974 276.356 51.9974" fill="#848484"/>
</svg>
