<svg width="1440" height="60" viewBox="0 0 1440 60" fill="none" xmlns="http://www.w3.org/2000/svg">
<mask id="mask0_889_2340" style="mask-type:alpha" maskUnits="userSpaceOnUse" x="0" y="0" width="1440" height="60">
<rect width="1440" height="60" fill="#D9D9D9"/>
</mask>
<g mask="url(#mask0_889_2340)">
<g filter="url(#filter0_d_889_2340)">
<path d="M3.14596 25.0261L-19.5094 37.9468C-26.614 41.9986 -31 49.5492 -31 57.7279C-31 70.3046 -20.8046 80.5 -8.22792 80.5H1447.38C1460.15 80.5 1470.5 70.1498 1470.5 57.3823C1470.5 49.3738 1466.36 41.9358 1459.54 37.7225L1439.73 25.465C1422.37 14.7241 1400.49 14.4841 1382.89 24.8415L1378.61 27.3612C1360.75 37.8746 1338.5 37.4575 1321.05 26.2822L1319.52 25.301C1302.82 14.61 1281.67 13.7315 1264.14 23.0016L1249.8 30.5881C1233.39 39.2684 1213.71 39.0853 1197.46 30.1014L1181.81 21.4468C1166.53 12.9911 1148.13 12.3032 1132.25 19.5933L1105.84 31.719C1088.53 39.6651 1068.34 38.0925 1052.48 27.5621L1048.04 24.6184C1032.44 14.2621 1012.63 12.5589 995.489 20.0984L961.944 34.8501C947.95 41.0038 932.027 41.056 917.993 34.9942L878.518 17.9428C863.897 11.6269 847.255 11.9597 832.898 18.855L803.005 33.2115C788.129 40.356 770.83 40.443 755.883 33.4484L725.689 19.3193C710.416 12.1721 692.708 12.4264 677.646 20.0093L652.634 32.6016C637.697 40.1214 620.151 40.4371 604.953 33.4597L572.975 18.7777C558.104 11.9503 540.966 12.0987 526.215 19.1827L502.388 30.6264C484.56 39.1885 463.49 37.4056 447.354 25.9696C431.642 14.8336 411.214 12.8304 393.638 20.7021L365.666 33.2294C349.828 40.3224 331.572 39.5247 316.413 31.0774L300.633 22.284C284.958 13.5493 265.517 14.6563 250.83 24.9654C234.358 36.5275 212.124 36.2298 196.105 24.0484C183.033 14.1086 165.67 11.8478 150.489 18.1089L113.944 33.1813C96.8158 40.2454 77.2822 38.2112 61.9771 27.7695L61.3901 27.3689C44.0196 15.518 21.4122 14.6087 3.14596 25.0261Z" fill="white"/>
</g>
</g>
<defs>
<filter id="filter0_d_889_2340" x="-39" y="-2.56616" width="1517.5" height="83.0662" filterUnits="userSpaceOnUse" color-interpolation-filters="sRGB">
<feFlood flood-opacity="0" result="BackgroundImageFix"/>
<feColorMatrix in="SourceAlpha" type="matrix" values="0 0 0 0 0 0 0 0 0 0 0 0 0 0 0 0 0 0 127 0" result="hardAlpha"/>
<feOffset dy="-8"/>
<feGaussianBlur stdDeviation="4"/>
<feComposite in2="hardAlpha" operator="out"/>
<feColorMatrix type="matrix" values="0 0 0 0 0 0 0 0 0 0 0 0 0 0 0 0 0 0 0.03 0"/>
<feBlend mode="normal" in2="BackgroundImageFix" result="effect1_dropShadow_889_2340"/>
<feBlend mode="normal" in="SourceGraphic" in2="effect1_dropShadow_889_2340" result="shape"/>
</filter>
</defs>
</svg>
